<?xml version="1.0" standalone="no"?>
<!DOCTYPE svg PUBLIC "-//W3C//DTD SVG 20010904//EN"
 "http://www.w3.org/TR/2001/REC-SVG-20010904/DTD/svg10.dtd">
<svg version="1.0" xmlns="http://www.w3.org/2000/svg"
 width="500.000000pt" height="500.000000pt" viewBox="0 0 500.000000 500.000000"
 preserveAspectRatio="xMidYMid meet">
<metadata>
Created by potrace 1.11, written by Peter Selinger 2001-2013
</metadata>
<g transform="translate(0.000000,500.000000) scale(0.100000,-0.100000)"
fill="#000000" stroke="none">
<path d="M2504 4558 c-4 -7 -4 -10 1 -6 4 4 16 3 26 -3 11 -5 19 -7 19 -5 0 3
-9 10 -19 16 -15 7 -22 7 -27 -2z"/>
<path d="M2485 4530 c-4 -6 -12 -7 -18 -4 -7 4 -9 4 -5 -1 11 -11 -12 -36 -25
-28 -5 3 -7 2 -4 -4 8 -14 -49 -67 -62 -58 -6 3 -8 12 -4 18 4 7 0 6 -10 -2
-20 -16 -22 -22 -6 -18 6 1 14 -4 16 -10 3 -7 0 -13 -7 -13 -6 0 -8 -5 -4 -12
5 -8 0 -7 -11 2 -12 10 -16 10 -11 2 10 -17 -13 -44 -32 -37 -13 5 -13 3 -1
-12 7 -10 9 -15 5 -11 -5 4 -19 -4 -31 -18 -15 -18 -27 -24 -36 -18 -11 6 -12
5 -2 -7 10 -12 8 -17 -8 -27 -11 -7 -25 -9 -32 -5 -7 4 -5 -2 3 -12 9 -11 10
-16 3 -11 -8 4 -13 2 -13 -4 0 -7 -6 -10 -12 -7 -7 2 -12 10 -10 17 3 11 0 11
-12 0 -17 -14 -22 -25 -7 -15 5 3 13 1 16 -5 9 -15 -15 -42 -31 -36 -8 3 -11
0 -8 -8 6 -15 -31 -50 -45 -42 -6 4 -8 -2 -6 -15 2 -12 2 -19 -1 -16 -4 3 -18
-7 -33 -22 -26 -28 -58 -46 -74 -42 -5 1 -6 -3 -2 -9 5 -8 12 -7 23 2 15 12
16 11 3 -4 -7 -10 -20 -18 -28 -18 -8 0 -11 -5 -7 -12 5 -8 2 -9 -10 -5 -10 4
-15 3 -11 -3 8 -14 -69 -91 -86 -87 -8 2 -11 2 -6 0 13 -8 7 -25 -7 -20 -10 4
-13 1 -10 -7 5 -14 -22 -30 -36 -21 -5 3 -12 0 -16 -6 -4 -7 -3 -9 4 -5 6 3
13 2 16 -2 9 -15 -61 -75 -76 -66 -10 6 -10 4 1 -10 12 -15 12 -17 0 -14 -8 2
-13 -3 -11 -12 2 -8 1 -12 -3 -9 -8 9 -53 -33 -47 -44 2 -4 -2 -6 -10 -5 -7 2
-12 -3 -10 -11 3 -12 1 -12 -14 0 -14 11 -16 11 -10 1 10 -16 -72 -105 -90
-98 -8 3 -10 -3 -7 -17 3 -16 2 -18 -5 -9 -7 11 -11 9 -15 -8 -4 -15 -11 -21
-21 -17 -10 4 -13 1 -9 -9 3 -7 0 -14 -7 -14 -6 0 -8 -5 -4 -12 5 -9 2 -8 -9
1 -15 12 -17 12 -12 -1 7 -17 -19 -43 -34 -33 -7 4 -8 -1 -4 -11 4 -10 2 -15
-3 -11 -5 3 -16 -8 -24 -26 -12 -28 -14 -29 -21 -11 -7 18 -8 18 -8 -2 -1 -27
-65 -89 -82 -79 -8 5 -10 4 -5 -4 10 -16 -74 -103 -93 -96 -11 5 -12 3 -1 -10
11 -13 11 -16 -1 -13 -8 2 -13 -3 -11 -12 2 -8 0 -12 -3 -8 -4 4 -17 -4 -28
-18 -10 -14 -25 -23 -33 -20 -8 3 -11 0 -7 -10 3 -7 0 -14 -7 -14 -6 0 -8 -5
-4 -12 4 -6 3 -8 -4 -4 -6 3 -14 -3 -17 -15 -6 -17 -9 -19 -16 -8 -7 11 -9 11
-9 -2 0 -20 -36 -53 -49 -45 -5 4 -13 1 -17 -5 -4 -8 -3 -9 4 -5 24 15 11 -6
-27 -43 -22 -22 -37 -43 -33 -47 4 -5 -1 -2 -11 5 -15 12 -17 12 -12 -1 7 -19
-20 -42 -37 -32 -8 5 -8 1 2 -11 9 -11 10 -16 2 -11 -7 4 -12 2 -12 -4 0 -7
-7 -10 -15 -7 -8 4 -17 1 -21 -5 -4 -7 -3 -8 4 -4 19 12 14 -10 -7 -28 -12
-11 -25 -15 -33 -10 -9 5 -8 2 2 -11 9 -11 10 -16 3 -11 -8 4 -13 2 -13 -4 0
-7 -6 -10 -12 -7 -7 2 -12 10 -10 17 3 11 0 11 -12 0 -17 -14 -22 -25 -7 -15
5 3 13 1 16 -5 9 -15 -15 -42 -31 -36 -8 3 -11 0 -7 -10 3 -7 0 -14 -7 -14 -6
0 -8 -5 -4 -12 5 -9 2 -8 -9 1 -15 12 -17 12 -12 -1 7 -19 -20 -42 -37 -32 -8
5 -8 1 2 -11 8 -10 11 -16 5 -14 -5 3 -26 -10 -45 -30 -19 -19 -29 -31 -21
-26 10 5 12 4 7 -4 -6 -9 -11 -9 -24 1 -13 11 -14 11 -8 -1 6 -9 0 -21 -18
-36 -14 -12 -22 -26 -18 -30 4 -5 1 -5 -6 -1 -9 5 -15 1 -19 -13 -3 -11 -9
-18 -14 -16 -4 3 -6 -3 -4 -15 2 -11 0 -22 -5 -25 -12 -8 0 -43 17 -50 9 -3
18 -3 21 0 3 3 0 5 -6 5 -6 0 -9 8 -6 18 5 14 4 15 -5 2 -9 -12 -11 -11 -8 7
2 12 7 26 12 30 4 5 5 2 1 -5 -4 -7 -1 -14 7 -17 17 -7 15 -43 -4 -57 -14 -10
-6 -8 39 9 10 4 7 -2 -8 -15 -14 -12 -20 -21 -13 -22 7 0 10 -7 7 -15 -4 -8
-11 -12 -17 -8 -6 4 -7 1 -2 -7 6 -10 11 -9 21 5 7 10 11 22 7 28 -4 6 -1 7 6
3 7 -5 10 -14 8 -20 -3 -7 -1 -19 4 -27 6 -9 9 -10 9 -2 0 7 7 10 17 6 12 -5
11 -1 -5 15 -22 22 -31 48 -12 37 6 -3 10 -13 10 -21 0 -12 12 -18 32 -15 4 0
5 -9 3 -20 -3 -14 4 -23 20 -31 14 -6 25 -16 25 -21 0 -5 -15 2 -34 17 -38 29
-46 31 -46 15 0 -5 4 -8 9 -5 11 7 33 -19 24 -28 -4 -4 0 -4 10 0 11 4 19 0
24 -11 6 -17 7 -17 21 1 12 15 14 16 9 2 -3 -9 1 -22 9 -28 8 -7 14 -9 14 -5
0 4 6 2 13 -4 8 -6 18 -7 23 -3 4 4 4 0 -2 -8 -6 -8 -14 -24 -17 -35 -6 -17
-3 -16 15 5 17 20 20 21 13 5 -4 -11 -7 -28 -7 -38 0 -10 -4 -15 -10 -11 -7 4
-8 2 -4 -4 4 -6 13 -9 21 -6 9 4 18 -1 21 -11 6 -13 9 -14 16 -3 8 10 11 10
15 0 2 -6 9 -10 14 -7 5 4 6 -1 3 -9 -6 -15 11 -17 34 -2 8 5 12 3 10 -6 -2
-7 3 -12 11 -10 12 3 12 0 2 -12 -8 -10 -9 -16 -1 -21 6 -3 8 -11 5 -16 -4 -5
1 -9 10 -9 9 0 13 5 10 10 -3 6 -1 10 5 10 6 0 10 -8 8 -17 -2 -13 3 -17 16
-15 18 3 18 3 2 -13 -12 -12 -14 -21 -6 -29 5 -7 7 -15 4 -19 -3 -3 1 -4 10
-3 8 1 19 6 23 11 4 4 3 5 -4 1 -6 -3 -14 -2 -17 3 -4 5 2 8 11 6 19 -3 19
-25 0 -37 -7 -5 -8 -8 -2 -8 6 0 16 5 22 11 7 7 15 -1 28 -27 9 -20 18 -44 20
-53 1 -9 10 -15 20 -13 10 2 14 -1 10 -7 -3 -6 -12 -11 -20 -11 -8 0 -16 -3
-18 -8 -3 -4 5 -7 18 -7 13 0 21 5 18 10 -3 6 0 4 7 -2 11 -11 9 -17 -11 -40
l-24 -26 25 16 c31 21 44 22 36 1 -3 -8 -1 -24 4 -34 8 -16 7 -18 -4 -14 -8 3
-13 16 -11 30 3 29 -1 30 -15 3 -9 -17 -8 -23 7 -35 10 -8 14 -14 8 -13 -23 3
-27 -2 -14 -18 12 -15 12 -16 -4 -10 -24 9 -21 0 4 -14 15 -8 19 -8 15 0 -4 6
-3 11 3 11 5 0 9 -8 9 -17 0 -10 3 -26 6 -35 11 -25 -29 -44 -43 -21 -6 10
-10 14 -11 8 0 -5 4 -17 10 -25 5 -9 5 -19 -2 -27 -10 -13 -1 -18 28 -14 17 2
25 -28 14 -50 -7 -13 -7 -25 0 -38 9 -18 5 -51 -7 -51 -2 0 -14 5 -26 11 -20
9 -20 9 -4 -4 9 -8 17 -20 17 -28 0 -11 -2 -11 -10 1 -5 8 -10 10 -10 4 0 -5
6 -16 13 -23 10 -11 9 -13 -6 -8 -11 4 -16 3 -12 -4 4 -5 15 -7 26 -4 10 4 19
2 19 -3 0 -15 -23 -21 -42 -11 -10 6 -19 5 -23 -1 -4 -6 -3 -10 2 -9 20 3 34
-2 28 -11 -3 -5 -1 -10 5 -10 6 0 9 -4 6 -8 -3 -5 1 -9 9 -9 8 0 15 4 15 9 0
4 -4 8 -10 8 -5 0 -10 5 -10 10 0 16 17 11 24 -7 5 -11 0 -22 -11 -31 -15 -11
-20 -10 -30 5 -15 19 -17 5 -3 -17 5 -9 5 -19 -2 -27 -10 -13 1 -18 26 -14 9
2 26 -18 26 -31 0 -3 -11 -20 -25 -36 -28 -33 -25 -42 13 -36 15 2 23 1 17 -3
-5 -5 -11 -15 -13 -23 -2 -8 -10 -18 -17 -23 -8 -4 -11 -15 -8 -24 4 -10 2
-14 -4 -10 -5 3 -10 0 -10 -8 0 -8 4 -12 9 -9 4 3 8 0 8 -6 0 -6 5 -8 11 -4 8
4 7 9 -2 15 -10 6 -7 8 9 6 14 -1 18 -5 12 -11 -14 -14 -13 -29 1 -20 8 4 7 0
-1 -15 -6 -13 -16 -19 -23 -14 -7 4 -7 0 2 -10 15 -19 26 -23 15 -6 -4 8 1 9
17 5 13 -3 18 -3 12 0 -7 3 -13 10 -13 16 0 7 5 6 14 -1 8 -7 28 -10 45 -8 19
3 35 0 42 -9 8 -10 15 -11 24 -4 6 5 16 6 20 2 5 -4 5 -1 1 6 -11 19 3 35 19
22 18 -15 14 15 -5 33 -10 10 -11 9 -5 -2 6 -10 4 -12 -5 -6 -9 5 -11 4 -6 -4
5 -7 2 -10 -5 -9 -7 2 -13 -5 -14 -14 0 -10 -4 -18 -10 -19 -20 -1 -15 18 11
44 20 20 30 24 44 17 21 -11 62 23 54 45 -4 8 -8 15 -11 15 -3 0 -3 -7 0 -15
4 -8 2 -17 -2 -19 -5 -3 -8 5 -7 17 1 18 6 22 33 21 25 -2 29 1 20 11 -7 7
-17 11 -23 8 -7 -2 -14 0 -18 5 -7 12 24 8 51 -6 19 -11 22 -10 17 3 -4 10 0
15 12 16 16 0 15 2 -4 9 -19 8 -21 13 -12 30 13 24 22 26 18 4 -2 -10 3 -19
10 -21 8 -3 10 1 6 12 -7 17 15 18 29 0 4 -6 7 -3 5 7 -2 9 1 16 7 15 5 -1 9
-6 7 -10 -1 -5 2 -6 8 -2 8 5 8 11 0 20 -8 9 -8 15 0 20 13 8 13 25 -1 25 -5
0 -7 -4 -4 -10 4 -6 -1 -7 -11 -3 -11 4 -13 8 -6 11 7 2 10 8 6 13 -3 5 7 4
22 -1 25 -10 26 -9 22 14 -3 17 -1 23 8 19 6 -2 11 -15 9 -28 -1 -14 2 -22 6
-19 12 7 6 39 -11 60 -8 10 -10 15 -3 11 7 -4 16 0 22 10 6 10 11 13 11 7 0
-5 -6 -16 -12 -22 -10 -10 -7 -12 12 -10 20 2 25 -1 24 -19 0 -12 3 -20 8 -17
4 3 8 12 8 20 0 18 3 18 43 -5 24 -13 39 -16 50 -9 13 7 17 6 15 -3 -2 -7 4
-13 12 -14 8 0 16 -7 16 -15 1 -8 2 -22 3 -30 1 -13 2 -13 12 0 8 12 9 10 4
-8 -6 -21 -5 -23 13 -13 11 6 22 7 26 4 9 -10 7 -33 -4 -33 -5 0 -6 7 -3 17 4
11 3 14 -6 9 -7 -5 -10 -15 -7 -23 4 -9 2 -21 -4 -28 -7 -8 -5 -12 5 -12 8 0
12 4 9 8 -2 4 5 13 17 19 15 8 19 9 15 1 -4 -6 -2 -11 3 -11 6 0 11 -5 11 -11
0 -8 -5 -8 -15 1 -9 7 -15 8 -15 2 0 -5 7 -12 15 -16 9 -3 12 -12 9 -23 -5
-15 -4 -15 4 -3 6 8 8 18 6 22 -3 5 6 3 20 -4 31 -13 31 -16 9 -48 -13 -20
-14 -22 -2 -13 9 7 20 9 24 5 5 -4 6 -2 2 3 -3 6 -1 17 4 25 9 13 10 13 8 0
-1 -8 -1 -22 0 -30 1 -13 3 -13 12 0 9 13 10 12 5 -3 -8 -26 11 -68 28 -61 9
3 12 12 9 22 -6 13 -7 13 -13 -3 -6 -17 -7 -17 -12 3 -4 12 -2 20 2 17 5 -3
10 1 13 7 3 8 9 3 15 -12 7 -19 6 -29 -6 -43 -14 -15 -14 -18 -2 -15 8 2 14
-3 12 -10 -1 -8 2 -11 9 -6 9 5 10 2 6 -9 -9 -24 0 -21 14 4 9 17 8 20 -2 14
-8 -5 -10 -4 -5 3 5 8 13 9 25 2 10 -5 22 -6 26 -2 3 4 6 3 5 -3 -5 -22 1 -35
14 -35 26 0 27 -19 5 -41 -20 -20 -20 -22 -3 -15 10 4 26 10 34 14 8 3 4 -4
-10 -16 -15 -13 -19 -21 -10 -20 8 2 14 -3 12 -10 -1 -8 2 -11 7 -8 5 4 16 -3
25 -15 13 -20 17 -20 32 -8 16 13 16 12 6 -8 -17 -32 -15 -36 8 -13 23 23 42
18 38 -8 -2 -10 3 -16 10 -14 8 1 11 -2 7 -8 -3 -5 -1 -10 6 -10 8 0 8 -4 -1
-15 -11 -13 -10 -14 6 -8 16 6 17 4 7 -8 -10 -13 -8 -15 15 -13 15 1 36 -2 47
-7 17 -6 17 -8 3 -8 -10 -1 -18 -5 -18 -10 0 -6 9 -8 21 -6 18 4 19 2 8 -11
-12 -14 -16 -13 -34 10 -18 23 -23 24 -39 13 -17 -13 -17 -14 1 -28 16 -13 17
-12 5 2 -10 14 -10 18 2 22 15 6 30 -18 21 -33 -3 -5 0 -12 6 -16 8 -4 9 -3 5
4 -14 22 9 12 42 -19 18 -17 31 -37 28 -45 -3 -9 0 -11 11 -7 12 5 14 3 8 -8
-4 -8 -4 -11 0 -6 5 4 24 -7 42 -25 32 -31 45 -57 21 -42 -7 4 -8 3 -4 -5 5
-8 12 -9 20 -2 8 7 16 4 26 -12 8 -12 13 -26 11 -32 -1 -5 1 -7 5 -2 4 4 16 0
26 -10 10 -9 18 -13 18 -8 0 4 7 2 15 -5 8 -7 15 -9 15 -5 0 4 8 1 17 -6 9 -8
14 -9 10 -3 -4 7 0 15 9 18 12 5 15 2 10 -11 -5 -15 -4 -15 9 1 19 25 3 45
-21 26 -20 -17 -47 -22 -38 -8 5 7 2 8 -6 3 -9 -5 -11 -4 -6 4 6 9 11 9 22 0
8 -6 14 -7 14 -2 0 5 12 15 26 21 15 7 22 17 18 24 -4 7 -3 8 5 4 9 -6 9 -11
1 -22 -10 -11 -6 -13 20 -9 30 4 55 15 33 15 -5 0 -10 15 -10 33 -1 24 1 27 6
12 8 -19 8 -19 19 1 6 12 9 24 7 28 -3 3 0 2 7 -4 9 -7 6 -17 -13 -36 -13 -15
-19 -24 -12 -21 6 4 14 1 17 -5 3 -7 4 -4 3 7 -1 15 3 19 18 17 16 -2 17 -1 5
7 -13 9 -13 11 3 11 9 0 17 5 17 11 0 5 4 8 9 5 5 -4 7 3 4 14 -3 11 -9 17
-14 14 -5 -3 -9 -1 -9 5 0 17 25 19 44 2 14 -11 17 -12 11 -2 -6 11 -4 13 10
7 15 -5 16 -4 5 9 -11 13 -1 22 14 13 2 -2 13 5 24 15 12 11 25 16 31 13 5 -4
12 -2 15 3 4 6 -7 8 -25 6 -27 -4 -29 -2 -18 11 9 11 10 17 1 23 -7 4 1 12 19
20 17 7 28 16 25 19 -7 6 13 32 24 32 3 0 7 -6 7 -14 0 -8 -6 -12 -14 -9 -8 3
-13 1 -11 -5 2 -6 -6 -18 -17 -27 -20 -16 -20 -16 1 -6 12 6 25 7 29 3 5 -4 5
-1 1 6 -4 7 -1 12 8 12 21 0 16 46 -7 62 -18 13 -17 14 2 14 11 0 18 -3 15 -7
-6 -11 21 -18 36 -9 7 4 13 19 13 33 0 14 5 28 12 30 6 3 12 -1 12 -9 0 -7 -5
-10 -10 -7 -6 3 -7 1 -3 -5 4 -7 9 -12 12 -12 4 0 26 48 28 62 1 3 5 10 10 15
5 5 6 3 2 -4 -4 -7 -2 -13 5 -13 6 0 9 8 6 19 -3 14 -1 18 10 14 8 -3 12 -12
9 -20 -4 -8 -1 -11 5 -8 6 4 8 13 5 21 -3 8 1 17 10 21 13 5 13 8 -3 26 -18
20 -18 20 9 2 15 -9 25 -22 21 -28 -3 -6 -1 -7 6 -3 9 6 9 11 0 22 -9 11 -8
15 4 20 9 3 20 3 25 0 5 -3 9 1 9 9 0 7 -8 12 -19 10 -15 -3 -16 -1 -8 16 13
23 22 25 13 3 -5 -14 -3 -15 15 -5 12 7 22 8 22 4 0 -4 7 1 15 11 10 13 15 15
15 6 0 -7 3 -11 6 -8 3 4 -2 20 -10 37 -12 22 -13 32 -4 37 7 4 8 3 4 -4 -4
-7 -3 -12 3 -12 5 0 12 -8 14 -17 3 -12 5 -9 6 7 0 15 -5 32 -11 40 -10 11 -9
11 6 0 18 -14 19 -13 13 3 -4 11 -3 16 3 12 5 -3 8 -19 6 -35 -2 -17 1 -27 6
-24 5 3 7 12 4 20 -3 8 4 23 16 34 17 16 24 17 37 7 14 -11 14 -10 2 5 -7 10
-18 15 -25 11 -15 -10 -40 -13 -31 -5 4 4 12 7 18 7 7 1 11 5 10 11 -1 5 7 10
17 10 10 0 17 -4 14 -7 -2 -4 1 -11 7 -15 8 -4 9 -3 5 4 -4 7 -2 12 3 12 6 0
11 5 11 11 0 5 -4 7 -10 4 -5 -3 -10 -2 -10 4 0 6 -7 8 -15 5 -8 -4 -15 -1
-15 4 0 6 11 9 25 6 18 -3 23 -1 19 10 -3 7 2 16 11 20 10 3 13 11 9 18 -4 7
-4 10 0 6 11 -9 46 23 39 36 -3 6 0 5 8 -2 12 -11 12 -14 -1 -22 -10 -6 -11
-10 -3 -10 7 0 10 -7 6 -17 -3 -10 -3 -15 1 -11 6 5 11 21 15 48 2 11 58 39
65 33 3 -3 6 -1 6 5 0 15 -6 15 -33 0 -25 -14 -52 -20 -42 -10 4 4 11 8 16 8
22 3 23 5 11 13 -11 7 -10 9 3 14 9 4 13 3 10 -3 -3 -6 -2 -10 4 -10 5 0 13 5
16 10 5 8 11 7 21 -1 11 -9 14 -8 15 2 2 21 2 22 -6 48 -6 21 -5 22 8 10 8 -8
13 -17 10 -21 -2 -4 3 -5 13 -1 15 5 15 7 0 15 -9 5 -14 14 -10 19 4 6 14 3
27 -8 21 -18 21 -18 7 1 -14 18 -13 19 5 12 11 -4 16 -4 12 0 -4 4 1 13 11 21
9 8 11 12 5 8 -7 -3 -13 -1 -13 5 0 6 -5 8 -10 5 -6 -4 -8 -10 -6 -14 3 -4 -1
-8 -9 -8 -13 0 -13 3 1 18 16 18 50 15 57 -5 2 -6 3 -3 1 7 -2 18 34 50 48 41
4 -3 8 0 8 5 0 14 -6 14 -33 0 -12 -7 -19 -8 -15 -4 4 5 2 15 -5 24 -11 14
-10 14 6 2 13 -10 21 -11 29 -3 8 8 17 8 32 1 20 -10 20 -9 -1 8 -17 14 -20
21 -12 33 9 13 10 12 5 -3 -3 -9 -1 -17 4 -17 6 0 10 6 10 14 0 18 27 46 43
46 7 0 3 -7 -7 -15 -11 -8 -21 -25 -23 -37 -2 -18 -1 -20 6 -8 5 8 7 18 5 22
-8 13 10 9 26 -4 12 -11 12 -10 1 5 -9 11 -10 17 -2 17 6 0 11 8 11 18 0 15 2
15 11 2 8 -12 9 -11 7 5 -2 15 2 19 17 17 15 -2 17 0 6 6 -9 6 -10 12 -3 16 6
4 9 13 6 21 -4 8 -11 12 -17 8 -6 -3 -7 -1 -3 6 5 7 12 9 19 3 22 -17 46 -21
53 -10 4 7 3 8 -4 4 -7 -4 -12 -2 -12 4 0 6 -5 8 -12 4 -7 -5 -8 -3 -3 5 4 7
16 11 26 8 11 -3 17 -2 14 3 -3 4 3 14 12 21 15 12 16 12 9 -6 -5 -15 -4 -17
5 -8 14 14 2 36 -14 27 -7 -4 -9 -4 -5 1 4 4 3 14 -3 21 -7 8 -7 14 1 19 6 4
9 1 8 -6 -2 -6 2 -13 8 -16 10 -3 28 31 25 50 -1 4 2 6 6 5 10 -4 59 31 55 38
-2 3 -1 8 1 11 3 3 4 -3 3 -12 -1 -10 -10 -23 -20 -30 -9 -7 -13 -15 -9 -17 4
-3 2 -3 -4 -2 -18 5 -47 -53 -31 -62 7 -5 8 -3 3 6 -6 10 -4 12 8 7 12 -4 14
0 11 19 -3 16 -1 23 6 19 5 -3 18 -1 27 4 11 6 13 11 5 11 -7 0 -10 5 -7 10 4
6 12 7 18 4 7 -4 9 -4 5 1 -4 4 0 14 10 22 9 8 11 12 5 8 -7 -3 -13 -1 -13 4
0 18 28 12 33 -6 3 -12 5 -9 5 7 1 52 13 74 30 54 4 -4 2 -4 -4 -1 -6 4 -10
-5 -10 -23 0 -17 2 -27 5 -24 3 3 6 13 6 22 0 9 6 16 13 14 9 -1 8 5 -4 23
-12 18 -13 25 -4 23 7 -2 15 3 18 11 2 8 0 11 -5 8 -5 -3 -9 3 -9 14 0 10 1
19 1 19 1 0 11 -14 24 -31 14 -19 17 -29 9 -27 -7 2 -15 -1 -16 -6 -1 -6 4
-11 12 -12 17 -2 30 23 16 31 -5 3 -9 17 -8 30 1 13 6 21 11 18 5 -3 6 -11 3
-19 -3 -7 0 -16 5 -20 11 -7 33 10 35 26 1 6 2 16 3 23 1 8 4 8 12 -3 8 -12 9
-12 7 5 -2 11 3 20 10 20 8 0 19 8 26 17 7 10 17 14 21 10 4 -4 0 5 -9 20 -17
26 -17 26 3 21 12 -3 19 -8 17 -12 -3 -4 4 -7 14 -7 20 0 20 20 0 39 -11 9
-11 8 0 -7 13 -17 13 -19 0 -14 -21 7 -19 31 3 34 9 1 17 -2 17 -7 0 -5 5 -9
10 -9 6 0 5 8 -2 19 -7 11 -15 18 -18 16 -4 -2 -7 2 -7 10 0 8 4 15 9 15 4 0
8 -4 8 -10 0 -5 7 -10 16 -10 14 0 15 2 3 17 -13 15 -12 15 8 5 14 -8 24 -9
28 -2 4 6 11 7 18 3 6 -3 0 9 -13 28 -13 19 -17 29 -9 22 13 -11 64 -15 54 -4
-3 2 3 10 13 18 9 8 11 12 5 8 -7 -3 -13 -1 -13 5 0 6 -5 8 -12 4 -6 -4 -8 -3
-5 4 8 12 44 4 50 -12 2 -6 3 -3 1 7 -2 12 8 25 26 35 25 15 26 17 12 29 -15
11 -15 12 5 8 16 -3 20 0 16 11 -3 7 -10 11 -17 7 -6 -3 -3 3 7 14 9 11 14 23
10 26 -3 4 -1 7 5 7 15 0 16 -17 2 -25 -6 -4 -7 -11 -4 -17 4 -7 10 -4 16 6 7
13 13 14 23 6 10 -8 15 -8 21 1 4 7 3 9 -3 6 -6 -4 -16 -1 -22 7 -11 14 -5 26
13 26 6 0 4 -5 -4 -11 -12 -9 -12 -10 3 -5 10 3 21 6 23 6 3 0 2 5 -1 10 -4 6
-1 17 5 25 6 8 8 20 4 26 -4 7 -3 9 4 5 5 -3 12 -1 14 5 2 5 11 7 21 4 9 -4
14 -12 11 -17 -4 -6 -9 -6 -14 2 -12 20 -29 -21 -19 -45 8 -18 8 -17 6 5 -2
20 2 25 19 24 24 -1 26 22 4 36 -8 5 -11 12 -7 16 4 4 13 2 19 -4 14 -14 38
-16 38 -2 0 5 -7 6 -17 3 -10 -4 -14 -2 -10 4 4 6 1 13 -5 16 -10 4 -10 7 0
18 10 11 8 17 -10 32 -22 17 -22 18 -2 8 17 -8 25 -7 34 4 9 11 7 16 -10 25
-11 6 -18 15 -15 20 3 5 1 11 -4 14 -5 4 -13 1 -17 -5 -5 -8 -3 -9 6 -4 8 5
11 4 6 -3 -7 -12 -36 -5 -36 9 0 5 -6 9 -14 9 -8 0 -18 4 -21 10 -3 5 0 7 9 4
8 -3 20 -3 26 1 15 9 -8 48 -25 41 -7 -2 -21 1 -31 9 -15 10 -22 11 -34 2 -13
-11 -13 -10 -1 6 11 14 16 15 29 5 13 -10 14 -10 8 0 -4 6 -3 12 3 12 5 0 12
-5 14 -10 3 -6 4 -5 3 2 -3 16 -46 20 -63 6 -12 -10 -13 8 -1 28 4 6 -6 21
-23 33 -16 12 -27 27 -23 33 4 6 3 8 -4 4 -5 -3 -13 0 -15 6 -4 9 -6 9 -6 1
-1 -6 6 -19 15 -27 8 -9 11 -16 5 -16 -5 0 -15 8 -20 18 -6 9 -11 11 -11 5 0
-7 -5 -13 -12 -13 -9 0 -9 3 0 12 23 23 12 52 -28 81 -22 16 -40 34 -40 42 0
7 -10 17 -21 20 -17 6 -19 9 -8 16 9 6 10 9 2 9 -21 0 -24 -19 -4 -29 11 -6
22 -20 26 -30 3 -11 16 -23 27 -27 19 -6 20 -7 4 -16 -10 -5 -20 -7 -23 -4 -4
3 -1 6 5 6 7 0 5 8 -5 18 -10 10 -21 14 -24 9 -3 -5 -9 -1 -12 8 -4 9 -3 13 3
10 6 -3 10 -2 10 4 0 5 -9 13 -20 16 -29 9 -25 31 8 44 l27 11 -33 -3 -33 -4
28 27 c15 14 33 24 38 21 6 -3 3 4 -5 15 -22 29 -24 30 -18 13 4 -9 2 -22 -3
-30 -5 -9 -7 -4 -5 16 2 17 4 32 5 34 0 2 11 -4 23 -15 l22 -19 -17 28 c-19
30 -16 35 7 11 14 -14 16 -14 16 0 0 8 -7 19 -15 23 -12 7 -11 11 8 22 20 13
21 13 8 -2 -7 -10 -9 -17 -3 -17 5 0 15 7 22 15 7 8 9 15 5 15 -5 0 0 9 10 20
10 11 22 17 27 14 5 -3 8 2 6 12 -2 11 3 19 12 19 8 0 15 8 15 17 0 9 4 20 9
25 5 4 6 3 2 -4 -3 -6 -1 -15 5 -19 8 -4 7 -9 -2 -16 -10 -6 -7 -7 10 -3 16 5
21 4 17 -4 -11 -16 0 -13 14 5 8 8 9 14 4 13 -22 -4 -34 2 -34 19 0 14 2 15
10 2 5 -8 12 -11 16 -7 4 4 14 1 22 -6 13 -10 14 -9 8 1 -4 7 -1 14 7 18 8 3
15 17 15 31 0 17 -3 21 -9 12 -4 -7 -5 -17 -3 -21 3 -5 0 -7 -8 -6 -7 2 -12
-2 -11 -8 1 -6 -5 -11 -12 -11 -12 0 -12 3 -2 16 10 12 9 14 -5 8 -15 -5 -16
-4 -5 13 9 16 13 17 17 6 4 -12 10 -10 26 9 14 15 18 27 12 33 -7 7 -4 10 8 9
10 -1 19 5 19 13 0 9 8 14 19 12 11 -2 15 1 11 7 -3 6 0 14 8 17 8 3 17 15 20
26 3 11 10 17 16 14 5 -4 13 -2 16 4 5 8 14 6 30 -4 17 -12 26 -13 31 -4 4 7
3 8 -4 4 -8 -5 -11 0 -8 16 3 13 5 25 5 28 1 3 6 -2 11 -10 7 -11 10 -11 10
-2 0 7 4 11 8 8 12 -7 6 53 -8 68 -8 11 -8 16 1 22 8 5 9 3 4 -6 -5 -9 -4 -11
3 -6 8 5 9 13 3 24 -4 9 -6 22 -4 29 3 7 -7 11 -27 11 -17 -1 -26 -4 -20 -8 8
-5 6 -9 -6 -14 -9 -3 -19 -4 -22 -1 -3 3 0 5 7 5 7 0 9 5 6 10 -4 7 -12 7 -25
0 -25 -13 -33 -13 -28 2 2 6 18 12 36 13 17 1 35 5 39 10 5 4 1 6 -9 2 -22 -8
-30 3 -15 22 11 14 10 14 -5 2 -10 -7 -15 -18 -12 -23 4 -6 -1 -8 -14 -4 -14
5 -26 -1 -42 -21 l-22 -28 22 40 c12 22 19 37 15 33 -5 -4 -14 0 -22 10 -13
15 -13 15 -4 -4 8 -16 7 -25 -3 -33 -7 -6 -16 -8 -19 -4 -4 3 -7 -2 -7 -13 0
-10 -4 -15 -8 -9 -8 12 -32 13 -49 2 -15 -9 -7 18 11 42 8 11 8 13 -1 8 -6 -4
-13 -4 -16 0 -2 5 -3 3 -1 -2 3 -17 -23 -48 -30 -36 -9 14 -37 2 -29 -13 3 -6
3 -8 -2 -4 -4 4 -15 2 -24 -4 -9 -7 -4 1 12 18 25 28 26 32 11 50 -15 19 -15
19 -5 -2 7 -15 6 -22 -7 -31 -9 -5 -21 -10 -26 -11 -5 0 -12 -6 -16 -12 -5 -8
-9 -7 -13 3 -4 11 -1 15 12 12 10 -2 23 6 31 18 12 20 12 21 -3 9 -9 -8 -22
-10 -29 -6 -21 13 -39 13 -31 1 4 -7 9 -21 10 -32 2 -15 -1 -13 -13 8 -8 15
-17 27 -20 27 -3 0 -20 -15 -37 -32 l-31 -33 23 40 c13 22 20 37 16 33 -5 -4
-14 0 -22 10 -13 15 -13 15 -4 -4 8 -16 7 -25 -3 -33 -7 -6 -16 -8 -19 -4 -4
3 -7 -2 -7 -13 0 -10 -4 -15 -8 -9 -8 12 -32 13 -49 2 -15 -9 -7 18 11 42 8
11 8 13 -1 8 -6 -4 -13 -4 -16 0 -2 5 -3 3 -1 -2 3 -17 -23 -48 -30 -36 -9 14
-37 2 -29 -13 3 -6 3 -8 -2 -4 -4 4 -15 2 -24 -4 -9 -7 -4 1 12 18 25 28 26
32 11 50 -15 19 -15 19 -5 -2 7 -15 6 -22 -7 -31 -9 -5 -21 -10 -26 -11 -5 0
-13 -6 -18 -14 -7 -10 -8 -9 -4 5 3 9 0 17 -6 17 -6 0 -8 3 -5 6 4 4 12 2 20
-4 10 -8 16 -6 27 11 12 20 12 21 -3 8 -13 -10 -20 -11 -31 -2 -11 9 -15 9
-19 -1 -4 -10 -8 -10 -17 2 -10 13 -11 13 -7 -1 4 -12 -2 -16 -24 -16 -15 0
-26 3 -24 7 2 3 -1 12 -6 20 -8 12 -9 11 -7 -5 2 -14 -3 -19 -21 -19 -24 0
-90 -54 -83 -68 2 -5 -1 -8 -7 -8 -5 0 -12 6 -15 13 -3 6 -4 3 -3 -8 2 -14 9
-19 22 -17 16 2 17 1 5 -7 -8 -5 -17 -8 -21 -5 -4 2 -9 -2 -12 -8 -2 -7 -8 -9
-13 -5 -5 4 -2 12 5 16 9 6 10 11 2 15 -6 4 -8 12 -5 18 4 7 2 8 -5 4 -6 -4
-9 -11 -6 -16 7 -12 -6 -41 -16 -34 -5 3 -6 -2 -3 -10 3 -9 11 -13 17 -9 6 3
7 1 3 -5 -9 -15 -47 7 -39 23 3 5 -2 2 -12 -7 -17 -16 -19 -15 -36 5 -16 19
-20 20 -30 7 -9 -13 -10 -13 -5 2 3 10 1 20 -5 24 -6 3 -8 12 -6 18 9 24 -9
39 -31 27 -25 -13 -43 -14 -22 -1 12 7 13 13 3 28 -9 15 -9 22 0 31 9 9 8 11
-7 5 -15 -6 -17 -4 -11 7 7 11 6 12 -7 2 -8 -7 -18 -10 -21 -6 -4 3 -7 1 -7
-5 0 -15 18 -24 22 -11 2 6 9 -2 16 -17 11 -27 11 -27 -3 -10 -11 14 -15 16
-15 5 0 -8 -9 -1 -19 15 -11 16 -30 35 -43 42 -13 8 -17 13 -9 14 8 0 -1 10
-19 23 -19 12 -35 29 -37 37 -4 13 -3 13 6 0 6 -8 11 -11 11 -7 0 4 9 3 20 -3
11 -6 18 -15 15 -19 -3 -5 2 -12 11 -15 8 -3 12 -10 9 -16 -3 -5 -1 -10 4 -10
6 0 11 7 11 15 0 8 -4 15 -9 15 -5 0 -12 8 -15 18 -4 10 -22 25 -41 32 -26 10
-35 20 -35 37 0 27 -12 29 -35 7 -15 -16 -16 -16 -13 2 2 11 -6 23 -22 30 -14
7 -39 27 -55 45 -17 18 -24 29 -16 24 9 -5 12 -3 9 5 -6 19 -25 24 -31 8 -2
-7 -3 -5 -2 4 2 10 -1 20 -6 23 -5 3 -7 19 -5 34 3 28 3 28 -26 13 -16 -8 -32
-11 -35 -8 -4 3 -1 6 5 6 7 0 5 8 -5 18 -10 10 -21 14 -24 9 -3 -5 -9 -2 -12
6 -7 20 15 16 37 -6 10 -9 23 -17 29 -17 6 0 1 7 -11 16 -12 8 -20 20 -16 25
3 5 2 9 -3 8 -22 -4 -43 2 -43 12 0 6 9 9 20 6 12 -3 18 -1 14 5 -3 5 -15 7
-26 5 -15 -4 -18 -1 -13 16 4 12 3 18 -2 12 -4 -5 -18 -11 -29 -12 -19 -2 -21
3 -20 37 2 29 -1 37 -10 29 -7 -6 -15 -5 -23 5 -8 10 -9 16 -1 21 5 3 10 11
10 18 0 6 -6 2 -14 -8 -13 -18 -11 -59 3 -51 4 3 13 1 21 -5 11 -6 12 -9 2 -9
-8 0 -10 -5 -6 -12 4 -7 -2 -5 -14 6 -21 18 -38 67 -33 96 2 13 1 13 -8 0 -5
-8 -8 -17 -5 -21 2 -4 -3 -10 -12 -13 -9 -3 -12 -2 -9 5 4 5 1 16 -5 25 -10
12 -16 12 -29 2 -14 -12 -14 -11 -2 4 7 10 17 16 21 13 5 -3 11 -2 14 3 7 12
-26 12 -41 0 -12 -10 -13 8 -1 28 4 6 -1 10 -15 9 -23 -2 -57 21 -57 39 0 6 4
5 9 -3 6 -9 11 -10 15 -2 4 6 0 14 -9 18 -10 3 -21 0 -25 -7 -5 -8 -7 5 -5 31
2 24 1 38 -2 31 -4 -10 -11 -6 -23 13 -14 22 -18 24 -24 10 -4 -10 -2 -14 6
-9 7 5 8 3 3 -6 -6 -9 -4 -11 6 -5 8 5 11 5 7 0 -4 -4 0 -13 9 -20 14 -11 14
-12 -1 -18 -9 -4 -15 -3 -12 1 5 8 -4 18 -55 57 -14 11 -27 25 -28 30 -11 33
-14 37 -21 25 -5 -9 -10 -6 -15 9 -3 12 -11 18 -17 15 -6 -4 -8 -2 -4 4 3 5 0
13 -6 15 -10 4 -10 6 0 6 7 1 10 6 7 11 -5 8 -11 8 -20 0 -10 -8 -15 -8 -21 1
-4 8 -3 9 4 5 7 -4 12 -1 12 8 0 10 -6 13 -17 10 -15 -5 -15 -4 -3 4 10 8 18
8 27 0 9 -7 13 -7 13 0 0 15 -30 23 -48 13 -13 -8 -25 -2 -51 27 -19 20 -30
30 -26 22 6 -12 5 -13 -6 -2 -16 15 -26 15 -34 2z m42 -356 c-3 -3 -12 -4 -19
-1 -8 3 -5 6 6 6 11 1 17 -2 13 -5z m35 -48 c-2 -4 -9 -2 -14 5 -8 12 -9 12
-6 0 2 -8 12 -15 21 -17 9 -1 15 2 11 7 -3 5 -1 9 5 9 19 0 21 -19 4 -30 -13
-8 -14 -10 -3 -9 30 3 41 -1 34 -13 -4 -6 -3 -8 3 -5 5 3 22 0 36 -8 15 -8 31
-14 34 -14 4 0 9 -5 11 -13 2 -9 0 -8 -7 2 -8 12 -10 11 -9 -6 1 -12 10 -21
22 -22 12 0 22 -6 24 -12 2 -5 9 -7 14 -4 7 4 8 2 4 -5 -6 -9 -11 -9 -21 -1
-9 8 -14 7 -18 -3 -4 -10 5 -13 33 -12 30 1 37 -2 32 -14 -4 -10 -7 -11 -10
-3 -3 9 -7 8 -18 -2 -18 -19 -18 -32 0 -17 17 14 32 -2 20 -21 -5 -7 -3 -8 5
-4 7 5 10 14 7 22 -3 8 -1 14 4 14 6 0 10 -5 10 -11 0 -6 6 -9 13 -6 8 3 14
-1 14 -8 0 -7 -6 -11 -13 -8 -6 2 -15 0 -19 -6 -3 -7 0 -8 9 -5 9 3 16 1 16
-5 0 -6 -5 -11 -12 -11 -28 0 10 -16 47 -19 6 -1 4 -5 -4 -10 -8 -5 -9 -11 -3
-15 5 -3 12 1 16 9 3 8 -3 19 -13 25 -13 6 -17 17 -14 31 4 15 8 17 14 8 5 -8
3 -17 -4 -21 -9 -6 -8 -8 3 -9 8 -1 18 -1 21 -1 4 1 15 -9 25 -21 19 -21 19
-21 0 -7 -18 14 -19 13 -13 -3 4 -11 3 -16 -3 -12 -6 3 -10 2 -10 -4 0 -12 43
-11 51 2 3 5 9 1 12 -8 4 -9 3 -13 -3 -10 -6 3 -10 2 -10 -4 0 -6 -6 -8 -14
-5 -8 3 -16 1 -20 -4 -3 -5 13 -8 34 -6 22 1 40 -2 40 -7 0 -6 6 -7 13 -3 6 4
9 4 5 -1 -10 -10 11 -37 22 -30 5 3 12 0 16 -6 4 -7 3 -9 -4 -5 -6 3 -13 2
-17 -3 -3 -6 -12 -8 -20 -4 -8 3 -15 1 -15 -5 0 -5 15 -9 34 -7 26 1 33 -2 29
-12 -4 -11 -8 -11 -13 -3 -5 8 -9 7 -13 -5 -4 -9 -3 -13 2 -10 5 3 12 1 16 -5
3 -5 12 -10 18 -10 8 0 8 3 -1 9 -10 6 -9 11 4 22 13 10 16 11 10 1 -5 -8 -1
-21 10 -33 9 -10 13 -19 9 -19 -4 0 0 -9 9 -19 10 -11 13 -22 8 -25 -6 -3 -12
1 -16 9 -3 8 -10 15 -16 15 -5 0 -2 -9 7 -20 13 -15 20 -17 30 -8 10 8 11 14
3 22 -5 5 -10 15 -10 21 0 5 7 2 15 -9 12 -16 12 -23 -1 -48 -9 -17 -13 -32
-11 -35 3 -2 8 5 12 17 6 20 7 21 21 3 14 -17 15 -17 5 3 -11 22 1 54 13 35 4
-6 2 -11 -4 -11 -6 0 -9 -4 -5 -10 3 -5 12 -7 20 -3 10 3 15 -1 15 -12 0 -9 5
-13 10 -10 6 4 9 1 8 -7 -2 -7 3 -12 10 -11 6 2 12 -2 12 -8 0 -5 5 -7 12 -3
7 4 8 3 4 -4 -5 -8 -13 -9 -25 -2 -10 5 -22 6 -26 2 -5 -4 -6 -2 -2 3 3 6 -1
19 -9 30 -12 16 -14 17 -14 2 0 -9 5 -17 11 -17 8 0 8 -4 0 -14 -8 -9 -8 -16
-2 -20 5 -4 13 -2 16 4 5 8 11 7 21 -1 7 -6 12 -15 9 -19 -3 -5 -1 -11 4 -14
5 -4 13 -1 17 5 4 8 3 9 -4 5 -16 -10 -15 -1 1 12 11 9 13 3 12 -32 -1 -29 2
-43 11 -43 7 0 10 5 6 11 -10 17 -11 35 -1 42 5 3 8 2 7 -3 -4 -14 13 -53 23
-53 6 0 7 -5 4 -10 -3 -6 1 -13 9 -16 9 -3 16 -12 16 -19 0 -19 17 -28 26 -14
4 8 3 9 -4 5 -7 -4 -12 -1 -12 8 0 8 -8 20 -17 25 -10 6 -12 11 -5 11 7 0 4 8
-8 20 -11 11 -20 26 -20 33 0 6 6 3 12 -8 6 -11 19 -25 27 -32 9 -7 12 -13 8
-13 -4 0 1 -10 13 -22 11 -12 20 -28 20 -35 0 -7 5 -13 11 -13 5 0 7 -5 4 -10
-3 -6 1 -13 9 -16 9 -3 16 -14 17 -23 0 -12 2 -13 6 -2 3 8 -2 20 -13 28 -12
9 -14 13 -4 13 11 0 10 3 -2 13 -17 14 -33 52 -18 42 6 -3 10 -12 10 -20 0 -7
7 -16 16 -19 9 -4 14 -9 11 -12 -3 -4 1 -13 9 -21 8 -9 12 -23 9 -34 -4 -11
-2 -19 5 -19 6 0 24 -14 40 -30 17 -17 30 -25 30 -19 0 7 2 10 5 7 10 -10 -7
-38 -19 -31 -8 4 -8 3 0 -6 12 -13 -3 -61 -19 -61 -5 0 -5 5 -1 12 4 7 3 8 -5
4 -6 -4 -9 -11 -6 -16 3 -4 -1 -10 -7 -13 -7 -2 -10 -7 -7 -11 3 -3 18 5 32
18 17 16 27 20 27 12 0 -21 -63 -58 -72 -43 -6 9 -8 9 -8 -1 0 -7 -5 -10 -11
-7 -6 4 -5 -2 2 -14 12 -19 15 -19 31 -4 13 12 22 13 29 6 8 -8 6 -11 -7 -10
-12 1 -18 -3 -16 -13 2 -8 0 -12 -4 -8 -4 4 -13 3 -21 -3 -7 -6 -14 -9 -14 -5
-1 3 -2 9 -3 14 -3 16 -18 32 -29 32 -7 0 -3 -6 8 -12 19 -11 19 -11 0 -19
-17 -7 -18 -8 -2 -8 9 -1 17 -6 17 -12 0 -6 -8 -8 -18 -5 -20 7 -24 -17 -7
-43 5 -9 4 -12 -3 -7 -5 3 -12 3 -15 -1 -2 -5 -2 -2 -1 5 2 6 -2 12 -9 12 -8
0 -6 4 3 10 8 5 11 10 5 10 -5 0 -17 -5 -25 -10 -9 -6 -10 -10 -3 -10 6 0 10
-9 8 -20 -2 -11 1 -20 6 -20 5 0 4 -6 -3 -14 -8 -8 -15 -10 -19 -4 -4 6 -10 5
-15 -3 -9 -14 -11 -20 -13 -41 0 -6 -8 -3 -16 8 -13 17 -14 17 -15 2 0 -9 -9
-23 -20 -31 -11 -8 -17 -17 -12 -22 4 -5 2 -5 -5 -1 -6 3 -14 2 -18 -4 -3 -5
-2 -10 4 -10 6 0 7 -8 4 -17 -6 -15 -7 -15 -14 3 -5 13 -1 25 16 40 12 12 28
31 34 43 7 12 17 18 23 15 7 -5 8 -2 3 6 -6 9 -4 11 6 5 11 -7 12 -6 2 7 -7 8
-11 18 -8 21 3 4 2 5 -1 3 -3 -2 -5 -7 -5 -10 1 -4 -4 -13 -11 -20 -9 -10 -17
-11 -25 -4 -9 7 -13 7 -13 0 0 -6 6 -12 13 -15 9 -3 9 -7 -1 -20 -8 -9 -21
-13 -30 -10 -15 4 -15 3 -2 -6 15 -10 13 -12 -12 -15 -7 0 -13 -6 -13 -13 0
-18 -22 -36 -34 -28 -6 3 -8 11 -5 17 4 6 2 8 -4 5 -15 -10 -8 -42 9 -42 8 0
22 9 32 20 18 20 18 20 8 -1 -6 -12 -7 -25 -3 -29 4 -3 0 -5 -8 -3 -8 2 -14
-3 -12 -10 1 -8 -2 -11 -7 -8 -5 4 -12 2 -16 -4 -3 -5 -12 -10 -18 -10 -7 0
-1 10 13 21 14 11 19 18 12 14 -7 -4 -18 -2 -25 4 -10 7 -13 2 -13 -25 0 -25
4 -33 14 -29 7 2 10 1 7 -4 -3 -6 -14 -9 -25 -8 -12 1 -16 5 -10 12 5 6 5 17
0 25 -7 10 -10 11 -10 3 0 -7 1 -15 3 -17 1 -2 -7 -13 -17 -25 -15 -17 -22
-19 -29 -9 -6 10 -8 9 -4 -2 2 -8 -3 -20 -12 -27 -14 -11 -14 -13 3 -26 15
-11 16 -16 6 -22 -8 -5 -11 -4 -6 3 4 7 -1 10 -14 9 -15 -1 -19 -6 -15 -22 5
-17 4 -17 -8 3 -7 12 -16 19 -21 15 -4 -4 -4 1 0 12 7 20 7 20 -14 1 -12 -11
-25 -16 -29 -13 -3 4 -2 7 3 7 5 0 10 9 11 21 2 20 1 20 -17 4 -17 -16 -18
-16 -16 2 2 10 8 18 14 18 6 0 14 3 18 8 4 4 2 7 -5 7 -8 0 -6 8 5 25 9 14 20
23 24 20 5 -3 5 5 2 17 -5 19 -7 20 -10 5 -2 -9 -8 -15 -13 -12 -5 4 -4 15 2
28 12 22 11 22 -9 4 -16 -15 -22 -16 -28 -5 -4 7 -4 10 0 7 7 -6 56 35 56 47
0 3 -15 -5 -32 -17 l-33 -23 23 26 c15 17 20 28 13 33 -6 3 -11 1 -11 -4 0 -6
-4 -11 -8 -11 -5 0 -9 7 -9 15 0 8 5 11 10 8 6 -4 8 1 4 11 -4 11 -3 15 4 10
7 -4 9 0 5 13 -4 12 -1 25 9 33 8 7 12 16 9 21 -3 5 1 9 8 9 8 0 6 5 -4 11
-10 5 -18 15 -18 21 0 6 7 5 18 -3 15 -12 16 -12 6 1 -13 18 -16 63 -4 55 5
-3 12 -1 15 5 4 6 1 9 -7 8 -7 -2 -12 4 -10 12 2 8 1 12 -3 8 -4 -3 -7 -10 -7
-15 1 -4 -7 -17 -16 -27 -16 -18 -16 -19 0 -13 12 4 15 2 11 -9 -8 -20 -26 -2
-29 28 -2 13 0 17 2 10 7 -16 25 -5 18 12 -3 7 2 19 10 26 9 7 13 16 10 21 -3
5 0 9 5 9 6 0 11 4 11 8 0 5 -6 9 -14 9 -8 0 -13 -8 -11 -18 4 -20 -21 -34
-31 -17 -4 7 -3 8 4 4 7 -4 12 -2 12 3 0 6 -4 11 -10 11 -5 0 -2 8 8 18 9 11
20 17 23 16 7 -4 4 35 -6 66 -5 15 -4 20 4 16 7 -5 8 -1 4 9 -4 12 -8 13 -13
5 -5 -8 -9 -7 -13 5 -4 9 -3 13 3 10 6 -3 10 -2 10 4 0 6 6 9 13 7 6 -1 9 -1
5 1 -5 3 -8 18 -8 34 0 20 4 28 12 23 7 -5 8 -3 3 6 -6 10 -4 12 11 6 16 -6
17 -5 6 6 -11 11 -18 8 -38 -17 -13 -16 -19 -31 -14 -33 15 -5 12 -19 -4 -19
-15 0 -16 14 -2 36 5 8 3 17 -5 23 -11 8 -10 9 4 4 18 -6 24 9 7 19 -6 4 -8
10 -5 15 3 5 0 12 -6 15 -5 4 -8 12 -6 19 6 14 -28 58 -37 49 -3 -4 -6 -1 -6
4 0 6 -8 10 -17 8 -10 -1 -17 -7 -16 -13 2 -6 -8 -9 -22 -6 -16 3 -24 0 -23
-7 2 -7 -8 -18 -22 -26 -14 -7 -20 -13 -15 -13 6 0 3 -5 -5 -10 -8 -5 -15 -15
-15 -21 0 -19 -22 -22 -29 -4 -4 11 -2 14 6 9 7 -5 8 -3 3 6 -6 9 -4 11 5 5 9
-6 11 -4 5 5 -6 9 -4 11 6 5 8 -5 11 -4 6 0 -4 5 7 17 25 27 18 9 26 17 18 18
-9 0 -25 -7 -36 -15 -12 -8 -25 -11 -29 -7 -5 4 -5 1 -1 -6 4 -7 1 -15 -9 -18
-10 -4 -13 -13 -10 -25 5 -13 1 -19 -10 -19 -10 0 -13 5 -9 13 4 6 4 9 0 5 -4
-3 -8 -10 -8 -15 1 -13 -30 -43 -39 -38 -4 3 -11 0 -15 -6 -4 -7 -3 -9 3 -6 6
4 14 0 17 -9 6 -16 26 -11 26 7 0 6 -5 7 -12 3 -7 -4 -8 -3 -4 5 4 6 12 9 17
5 5 -3 8 0 7 7 -2 7 7 14 19 15 12 1 20 -2 17 -7 -2 -4 -12 -5 -21 -2 -10 4
-14 2 -10 -4 9 -15 -22 -55 -36 -46 -26 16 -36 12 -27 -13 6 -15 5 -26 -2 -30
-7 -4 -8 -3 -4 4 4 7 2 12 -4 12 -6 0 -9 3 -7 8 3 4 0 16 -4 27 -9 18 -9 18
-5 -3 4 -22 -24 -49 -38 -35 -3 3 -6 4 -6 1 0 -3 8 -12 17 -19 14 -12 16 -12
8 0 -5 10 -4 12 3 7 7 -4 12 -1 13 6 0 8 2 9 5 2 6 -13 -52 -74 -69 -74 -7 0
-6 -4 3 -10 10 -7 11 -10 3 -11 -7 -1 -17 -3 -23 -4 -5 -1 -17 -3 -26 -4 -8 0
-12 -6 -9 -11 4 -6 16 -8 28 -5 21 6 21 6 2 -6 -11 -7 -26 -20 -33 -28 -11
-14 -11 -14 -6 2 5 13 2 16 -10 11 -13 -5 -13 -10 -4 -27 6 -12 7 -19 3 -15
-4 4 -14 0 -22 -10 -12 -16 -13 -16 -6 2 4 13 3 17 -5 12 -8 -5 -10 -2 -5 9 5
13 7 14 14 3 6 -9 8 -5 7 12 -2 16 2 24 10 23 6 -2 12 1 12 6 0 6 -9 9 -19 8
-11 0 -18 -4 -15 -8 2 -4 -2 -13 -9 -21 -8 -7 -13 -23 -12 -35 1 -12 -2 -20
-6 -18 -4 3 -10 -2 -13 -11 -5 -12 -2 -15 11 -10 16 5 16 5 2 -6 -8 -7 -21
-22 -28 -33 -12 -19 -12 -19 -6 2 3 12 1 24 -5 28 -5 3 -11 -1 -11 -9 -1 -9
-3 -20 -4 -26 -1 -5 -3 -15 -4 -21 -1 -6 -10 -8 -23 -3 -19 6 -21 5 -11 -8 15
-18 7 -29 -15 -21 -10 4 -13 2 -8 -5 4 -7 2 -12 -4 -12 -6 0 -8 -5 -4 -12 4
-7 -6 -2 -23 10 l-31 22 11 -24 c7 -13 14 -23 18 -21 3 2 6 -2 6 -9 0 -8 -7
-12 -15 -8 -11 4 -13 2 -7 -8 5 -8 -7 -3 -26 10 -19 13 -28 17 -21 10 15 -17
16 -60 1 -60 -5 0 -8 -4 -4 -9 3 -5 0 -13 -6 -17 -7 -4 -9 -3 -5 4 3 6 2 13
-4 17 -6 4 -8 11 -4 16 3 5 10 7 15 4 5 -4 9 -1 9 4 0 16 -27 13 -34 -4 -3 -9
-12 -12 -23 -9 -15 5 -15 4 -3 -4 8 -6 18 -8 22 -6 4 3 8 -4 8 -16 0 -19 -1
-20 -16 -6 -8 9 -18 16 -21 16 -4 0 -3 -3 0 -6 9 -10 -12 -46 -23 -39 -6 3
-22 -6 -37 -21 -22 -22 -24 -26 -8 -20 11 4 16 4 12 0 -4 -4 -1 -14 6 -22 10
-13 9 -14 -2 -7 -11 6 -13 4 -8 -8 3 -9 3 -16 -1 -16 -21 4 -32 -2 -26 -13 4
-8 3 -10 -2 -5 -15 14 -11 31 11 44 16 10 17 12 4 13 -9 0 -22 -7 -29 -15 -7
-8 -9 -15 -4 -15 4 0 -1 -6 -12 -14 -17 -13 -18 -17 -5 -38 13 -20 13 -22 -1
-10 -13 10 -18 9 -29 -4 -11 -13 -10 -17 2 -25 9 -5 10 -9 2 -9 -7 0 -17 8
-23 18 -10 15 -11 15 -7 -3 3 -16 -1 -21 -17 -22 -12 -1 -15 1 -8 4 6 3 12 9
12 14 0 6 -5 7 -10 4 -15 -9 -60 22 -60 40 0 8 -5 15 -12 15 -27 0 9 16 45 19
4 1 7 6 7 12 0 5 -5 7 -10 4 -12 -7 -9 23 4 44 6 10 5 12 -2 7 -7 -4 -12 -2
-12 3 0 6 5 11 11 11 5 0 7 5 3 11 -4 8 -11 3 -20 -12 -9 -17 -9 -28 -1 -37 5
-7 6 -12 1 -11 -23 4 -26 -2 -8 -17 18 -15 18 -15 -3 -5 -18 9 -22 26 -13 51
1 3 2 8 1 13 0 4 3 7 7 7 4 0 8 9 9 19 1 11 -4 19 -10 17 -7 -1 -9 -1 -4 1 4
3 5 8 2 13 -3 4 2 13 10 20 8 7 15 17 15 22 0 6 -7 5 -15 -2 -9 -7 -18 -10
-22 -6 -3 3 -1 6 6 6 7 0 9 5 5 12 -4 7 -3 8 4 4 7 -4 12 -3 12 3 0 6 8 8 18
5 14 -5 15 -4 2 5 -13 9 -13 14 -2 31 10 17 10 25 1 36 -9 11 -8 18 2 31 10
11 10 14 2 9 -7 -4 -13 -2 -13 3 0 6 -8 19 -18 29 -15 15 -16 21 -6 30 8 8 15
8 19 2 3 -6 1 -10 -6 -10 -7 0 -5 -8 6 -20 10 -11 23 -20 29 -19 6 0 6 3 -2 6
-6 2 -9 10 -6 15 5 7 2 8 -6 3 -8 -5 -11 -3 -8 6 3 8 12 13 19 11 8 -2 10 0 6
5 -5 4 -14 8 -20 8 -5 0 -12 6 -15 14 -3 8 0 11 7 7 7 -5 9 -1 4 10 -4 10 -2
15 4 11 5 -3 10 0 10 8 0 21 -15 18 -22 -4 -3 -11 -11 -24 -18 -30 -10 -7 -13
-4 -14 12 -2 17 0 19 7 7 8 -13 10 -13 10 2 0 9 -3 18 -7 21 -5 2 -2 2 5 1 18
-5 15 6 -10 25 -17 14 -18 18 -5 18 9 0 14 -4 12 -8 -3 -4 2 -9 10 -13 8 -3
15 -1 15 5 0 6 6 7 13 3 6 -4 9 -4 5 1 -4 4 -2 15 4 24 11 14 10 13 -7 -1 -18
-15 -21 -15 -35 0 -8 9 -15 25 -17 36 -1 12 1 15 4 8 4 -10 8 -10 21 0 12 9
11 6 -2 -10 -11 -12 -14 -22 -8 -22 23 0 26 5 27 35 0 20 4 29 14 27 11 -2 10
3 -3 23 -16 25 -14 51 4 40 5 -3 12 0 16 6 4 8 3 9 -4 5 -7 -4 -12 -2 -12 4 0
7 -7 10 -15 6 -8 -3 -15 -1 -15 5 0 6 -4 8 -9 4 -5 -3 -13 0 -17 6 -4 8 -3 9
4 5 7 -4 13 -4 13 1 6 36 5 53 -4 53 -5 0 -4 7 3 15 13 16 30 11 30 -8 0 -9
-3 -8 -8 1 -5 7 -8 -4 -8 -28 0 -22 3 -40 7 -40 3 0 5 10 5 23 -1 12 2 27 7
34 5 7 3 21 -4 35 -11 21 -11 22 5 9 9 -8 19 -11 23 -7 3 3 1 6 -5 6 -7 0 -12
5 -12 11 0 5 5 7 12 3 6 -4 8 -3 4 4 -3 6 -1 14 6 19 7 4 19 19 26 32 8 12 9
20 3 16 -6 -3 -11 -1 -11 6 0 10 -3 10 -12 1 -15 -15 -28 -15 -28 -1 0 5 4 8
9 4 5 -3 12 -1 15 4 4 6 18 6 36 1 19 -6 32 -5 36 2 4 6 2 8 -4 4 -6 -3 -13
-2 -17 4 -6 9 6 14 30 11 6 0 16 13 23 29 8 17 17 28 22 25 4 -3 11 2 14 11 4
9 11 12 18 8 7 -5 4 5 -6 21 l-19 30 26 -18 c19 -12 28 -14 33 -5 4 6 3 8 -3
5 -12 -8 -39 20 -29 30 3 3 6 1 6 -6 0 -7 6 -11 14 -8 7 3 19 0 26 -6 9 -8 11
-9 7 -1 -9 16 13 31 41 28 12 -1 20 1 17 5 -4 3 -14 6 -22 6 -9 0 -18 6 -21
14 -3 8 0 11 6 7 7 -4 19 2 29 14 10 11 16 22 13 24 -3 2 2 11 10 21 14 17 13
18 -2 12 -32 -11 -19 2 18 19 20 10 33 22 30 29 -7 18 5 27 20 14 8 -7 14 -7
19 1 3 5 1 10 -6 10 -7 0 -10 3 -6 6 3 3 12 2 19 -2 15 -10 42 -15 34 -7 -3 4
-1 12 5 20 6 7 8 13 4 13 -5 0 0 9 10 20 14 16 20 17 27 8 6 -10 8 -10 8 0 0
7 4 11 8 8 4 -2 14 0 22 5 11 7 7 8 -12 5 -24 -4 -27 -2 -24 17 2 12 -2 29 -8
37 -6 8 2 5 18 -8 32 -25 51 -21 36 8 -15 29 4 33 36 8 19 -15 24 -16 15 -5
-7 9 -10 17 -6 17 4 0 1 10 -8 23 -14 22 -14 23 15 25 17 1 36 -2 43 -8 8 -7
12 -6 12 3 0 8 -6 14 -14 15 -7 1 -20 3 -28 4 -8 1 -12 5 -9 10 3 5 10 6 15 2
6 -3 17 -3 26 0 12 5 13 9 3 21 -9 10 -9 15 -1 15 6 0 11 -5 11 -11 0 -5 6 -7
13 -3 9 6 9 4 -1 -8 -10 -13 -10 -18 -1 -24 8 -5 9 -3 4 6 -6 10 -4 12 9 7 14
-6 17 -3 12 8 -3 9 -2 13 4 10 6 -3 10 2 10 12 0 14 3 12 14 -7 7 -14 11 -29
8 -34z m49 37 c13 -16 12 -17 -3 -4 -17 13 -22 21 -14 21 2 0 10 -8 17 -17z
m-11 -23 c13 0 20 -29 8 -36 -7 -4 -8 -3 -4 4 4 6 -5 19 -19 28 -14 9 -25 21
-25 26 0 5 7 2 16 -6 8 -9 19 -16 24 -16z m47 -57 c-11 -10 -26 8 -20 23 5 15
7 14 15 -1 6 -9 7 -19 5 -22z m37 2 c3 -8 1 -15 -4 -15 -6 0 -10 7 -10 15 0 8
2 15 4 15 2 0 6 -7 10 -15z m-304 1 c0 -2 -8 -10 -17 -17 -16 -13 -17 -12 -4
4 13 16 21 21 21 13z m31 -13 c13 -16 12 -17 -3 -4 -10 7 -18 15 -18 17 0 8 8
3 21 -13z m574 7 c3 -5 1 -10 -4 -10 -6 0 -11 5 -11 10 0 6 2 10 4 10 3 0 8
-4 11 -10z m-614 -47 c13 -16 12 -17 -3 -4 -10 7 -18 15 -18 17 0 8 8 3 21
-13z m379 -13 c0 -5 -2 -10 -4 -10 -3 0 -8 5 -11 10 -3 6 -1 10 4 10 6 0 11
-4 11 -10z m-434 -27 c-2 -9 -12 -24 -24 -34 -12 -9 -18 -19 -13 -21 5 -1 2
-10 -7 -18 -14 -13 -15 -12 -9 3 5 14 2 16 -18 13 -14 -3 -27 -1 -30 4 -3 5 3
7 13 5 21 -4 76 28 78 45 2 16 4 20 8 20 2 0 3 -7 2 -17z m894 -97 c0 -3 -4
-8 -10 -11 -5 -3 -10 -1 -10 4 0 6 5 11 10 11 6 0 10 -2 10 -4z m-1089 -69
c-10 -9 -11 -8 -5 6 3 10 9 15 12 12 3 -3 0 -11 -7 -18z m13 -38 c-9 -10 -21
-16 -26 -13 -5 3 -2 14 8 25 9 10 21 16 26 13 5 -3 2 -14 -8 -25z m-41 9 c-11
-15 -11 -28 0 -44 4 -7 1 -17 -7 -23 -11 -9 -15 -7 -19 8 -2 11 0 24 6 30 6 6
7 11 3 11 -5 0 -3 7 4 15 15 18 26 20 13 3z m1232 -58 c3 -5 1 -10 -4 -10 -6
0 -11 5 -11 10 0 6 2 10 4 10 3 0 8 -4 11 -10z m55 -20 c0 -5 -5 -10 -11 -10
-5 0 -7 5 -4 10 3 6 8 10 11 10 2 0 4 -4 4 -10z m-310 -20 c0 -5 -2 -10 -4
-10 -3 0 -8 5 -11 10 -3 6 -1 10 4 10 6 0 11 -4 11 -10z m-1075 -46 c-29 -26
-40 -30 -40 -11 0 6 5 11 12 10 7 -2 17 6 23 17 6 11 15 18 21 14 6 -3 -1 -16
-16 -30z m1390 26 c3 -5 1 -10 -4 -10 -6 0 -11 5 -11 10 0 6 2 10 4 10 3 0 8
-4 11 -10z m-1437 -63 c9 -10 6 -13 -13 -13 -19 0 -22 3 -13 13 6 7 12 13 13
13 1 0 7 -6 13 -13z m-67 -85 c-13 -24 -40 -46 -47 -39 -9 8 6 28 16 22 5 -3
14 4 20 15 6 11 13 20 16 20 2 0 0 -8 -5 -18z m2385 -7 c-9 -9 -16 -13 -16 -8
0 12 22 34 28 28 2 -2 -3 -11 -12 -20z m-350 2 c4 -4 13 -2 20 4 8 7 14 7 19
-1 3 -5 11 -10 16 -10 6 0 7 5 4 10 -3 6 -2 10 4 10 5 0 9 -9 8 -19 -1 -14 -6
-17 -17 -12 -19 9 -51 8 -68 -2 -8 -5 -11 -4 -10 4 2 6 -3 14 -10 16 -7 3 -12
1 -11 -4 5 -26 -1 -35 -15 -24 -11 10 -17 7 -30 -11 -9 -12 -16 -17 -16 -11 0
6 14 23 31 37 28 24 59 29 75 13z m760 -22 c-2 -14 -16 -22 -16 -10 0 3 0 10
0 15 0 6 4 10 9 10 5 0 8 -7 7 -15z m-1072 -4 c3 -5 -1 -14 -8 -20 -11 -9 -16
-9 -22 0 -4 8 -3 9 4 5 7 -4 12 -1 12 8 0 18 6 21 14 7z m-1790 -19 c3 -5 -1
-9 -9 -9 -8 0 -12 4 -9 9 3 4 7 8 9 8 2 0 6 -4 9 -8z m2029 -7 c-3 -9 -8 -14
-10 -11 -3 3 -2 9 2 15 9 16 15 13 8 -4z m-513 -35 c0 -5 -2 -10 -4 -10 -3 0
-8 5 -11 10 -3 6 -1 10 4 10 6 0 11 -4 11 -10z m1345 0 c-3 -5 0 -10 7 -11 9
0 10 -2 1 -5 -7 -3 -9 -13 -6 -22 4 -13 3 -14 -5 -4 -7 11 -10 11 -15 -2 -7
-18 -27 -22 -27 -5 0 5 5 7 10 4 6 -3 10 1 10 9 0 9 4 16 10 16 5 0 7 7 4 15
-4 8 -1 15 6 15 6 0 8 -4 5 -10z m-1025 -20 c0 -5 -5 -10 -11 -10 -5 0 -7 5
-4 10 3 6 8 10 11 10 2 0 4 -4 4 -10z m64 -18 c3 -5 -1 -9 -9 -9 -8 0 -15 4
-15 9 0 4 4 8 9 8 6 0 12 -4 15 -8z m906 -26 c0 -2 -7 -7 -16 -10 -8 -3 -12
-2 -9 4 6 10 25 14 25 6z m-1210 -16 c0 -5 -2 -10 -4 -10 -3 0 -8 5 -11 10 -3
6 -1 10 4 10 6 0 11 -4 11 -10z m-1579 -23 c-5 -5 -17 -5 -28 2 -16 9 -15 10
9 9 16 -2 24 -6 19 -11z m-3 -65 c-10 -15 -18 -18 -28 -11 -12 7 -11 9 5 9
l20 1 -20 16 c-18 14 -18 15 -1 9 14 -5 17 -3 12 11 -7 17 -6 17 10 1 14 -14
15 -19 2 -36z m777 20 c-3 -3 -11 0 -18 7 -9 10 -8 11 6 5 10 -3 15 -9 12 -12z
m827 6 c3 -7 11 -13 19 -13 16 0 25 -18 11 -23 -4 -1 -21 9 -36 23 -18 16 -22
25 -12 25 8 0 16 -6 18 -12z m-539 -67 c-2 -14 1 -20 8 -15 8 4 8 0 0 -15 -13
-24 -17 -25 -27 -9 -4 7 -3 8 4 4 7 -4 12 -2 12 3 0 6 -5 11 -11 11 -8 0 -7 5
2 16 10 13 10 17 -2 26 -12 8 -12 9 1 5 9 -2 14 -14 13 -26z m599 -18 c-6 -3
-9 -10 -5 -16 4 -6 7 -22 8 -35 1 -21 0 -22 -12 -6 -7 9 -11 24 -10 33 4 24
18 43 26 35 3 -4 0 -9 -7 -11z m33 -32 c3 -5 2 -12 -3 -15 -5 -3 -9 1 -9 9 0
17 3 19 12 6z m-1720 -140 c3 -5 2 -12 -3 -15 -5 -3 -9 1 -9 9 0 17 3 19 12 6z
m1562 -26 c0 -8 -4 -12 -9 -9 -4 3 -8 9 -8 15 0 5 4 9 8 9 5 0 9 -7 9 -15z
m-1554 -28 c-16 -19 -16 -20 -1 -14 19 7 33 -7 23 -23 -8 -12 -38 16 -42 39
-2 17 16 33 30 24 4 -3 0 -14 -10 -26z m1084 21 c14 -23 11 -34 -11 -48 -19
-12 -20 -12 -7 4 13 15 13 19 0 27 -12 7 -12 9 1 9 13 0 13 1 0 10 -9 6 -10
10 -3 10 6 0 15 -6 20 -12z m-1093 -70 c-3 -4 0 -8 5 -8 6 0 11 -4 11 -8 0 -5
-7 -9 -15 -9 -8 0 -13 3 -10 5 3 3 0 10 -5 17 -7 8 -5 12 5 12 8 0 12 -4 9 -9z
m2416 4 c0 -4 -9 -13 -20 -19 -14 -9 -21 -10 -26 -1 -4 6 -3 8 3 5 6 -4 16 0
23 8 14 17 20 19 20 7z m-980 -56 c0 -2 -8 -10 -17 -17 -16 -13 -17 -12 -4 4
13 16 21 21 21 13z m-1153 -75 c0 -11 -4 -18 -7 -16 -9 6 -40 -32 -33 -39 4
-3 2 -6 -4 -6 -17 0 -23 27 -9 39 7 6 15 8 19 5 3 -3 12 3 19 15 16 26 17 26
15 2z m818 -31 c3 -6 -4 -10 -17 -10 -18 0 -20 2 -8 10 19 12 18 12 25 0z
m1435 -21 c0 -4 -8 -7 -19 -6 -12 1 -17 7 -13 19 3 14 7 16 18 7 8 -6 14 -15
14 -20z m-1298 -36 c-6 -3 -9 -10 -6 -15 4 -6 2 -8 -4 -4 -6 3 -13 2 -17 -4
-3 -5 -11 -10 -16 -10 -6 0 3 11 18 24 15 13 30 22 33 19 3 -3 -1 -8 -8 -10z
m928 -28 c0 -5 -5 -3 -10 5 -5 8 -10 20 -10 25 0 6 5 3 10 -5 5 -8 10 -19 10
-25z m54 16 c3 -4 -6 -6 -19 -3 -14 2 -25 6 -25 8 0 8 39 4 44 -5z m-2056 -36
c-3 -3 -9 2 -12 12 -6 14 -5 15 5 6 7 -7 10 -15 7 -18z m2014 1 c17 1 31 -3
37 -13 5 -10 21 -16 42 -16 19 1 28 -1 21 -4 -10 -4 -8 -9 7 -19 12 -9 18 -21
15 -32 -5 -14 -4 -14 4 -3 7 9 7 21 2 31 -6 12 -5 17 4 17 9 0 13 -12 12 -33
-1 -24 2 -30 11 -23 9 8 12 5 12 -10 1 -12 1 -31 2 -42 0 -25 8 -20 14 10 2
11 -1 21 -6 21 -6 0 -7 5 -3 11 4 8 9 7 15 -2 4 -7 5 -17 2 -23 -4 -5 1 -7 11
-3 9 4 14 3 11 -2 -3 -5 -1 -12 5 -16 5 -3 10 0 10 7 0 9 3 9 10 -2 13 -20 12
-30 -1 -30 -5 0 -7 6 -3 13 4 6 4 9 -1 5 -4 -4 -14 -3 -22 3 -7 6 -13 10 -14
8 -7 -37 -7 -40 5 -29 10 7 17 6 27 -7 12 -14 12 -16 -2 -11 -10 4 -16 1 -16
-8 0 -12 5 -11 25 2 13 8 26 13 30 10 3 -3 1 -6 -5 -6 -6 0 -13 -13 -16 -30
-5 -23 -10 -28 -23 -23 -14 5 -16 3 -11 -11 4 -9 3 -15 -2 -12 -5 3 -12 -1
-15 -10 -3 -9 -13 -14 -21 -10 -8 3 -17 0 -21 -6 -4 -6 -3 -8 4 -4 6 3 13 2
17 -4 3 -5 -1 -10 -10 -10 -10 0 -13 -5 -9 -12 5 -7 2 -9 -9 -5 -9 3 -18 0
-21 -9 -4 -10 -2 -13 6 -8 7 4 -8 -13 -33 -37 -24 -25 -46 -44 -48 -42 -2 1
-16 -13 -30 -31 -15 -18 -34 -32 -44 -30 -9 1 -20 -3 -24 -8 -3 -6 -1 -8 5 -4
6 3 13 2 17 -4 5 -9 -7 -14 -27 -11 -4 0 -4 -7 -1 -16 4 -11 3 -14 -5 -9 -7 4
-12 1 -12 -9 0 -11 -5 -15 -15 -11 -8 3 -14 2 -14 -2 3 -20 -2 -32 -11 -27 -6
4 -7 11 -4 17 4 6 2 8 -4 5 -5 -4 -9 -15 -8 -24 2 -10 -12 -29 -30 -44 -18
-14 -30 -30 -26 -34 4 -5 1 -5 -5 -1 -7 4 -21 2 -30 -4 -17 -11 -17 -11 0 -6
9 3 17 1 17 -4 0 -6 -8 -10 -17 -10 -9 0 -14 -3 -10 -6 3 -4 0 -13 -8 -20 -17
-18 -26 -18 -19 0 3 8 1 16 -3 19 -5 3 -9 -8 -8 -25 0 -18 -6 -33 -14 -36 -9
-3 -11 0 -6 8 5 9 4 11 -4 6 -6 -4 -9 -11 -6 -16 7 -11 -126 -141 -137 -134
-5 3 -8 2 -7 -3 4 -21 -2 -33 -17 -33 -8 0 -13 -4 -10 -9 3 -4 -6 -7 -19 -5
-14 1 -25 -2 -25 -8 0 -6 7 -8 15 -4 23 8 18 -4 -12 -30 -16 -13 -33 -22 -40
-19 -7 2 -15 -1 -19 -7 -4 -6 -3 -8 4 -4 6 3 13 2 17 -4 5 -9 -7 -14 -26 -12
-4 1 -6 -6 -5 -16 1 -12 -6 -17 -26 -16 -16 1 -28 -3 -28 -8 0 -6 7 -8 15 -4
21 8 19 -1 -8 -27 -48 -47 -56 -51 -74 -36 -14 10 -13 8 2 -10 17 -21 17 -23
3 -18 -12 4 -15 2 -12 -7 4 -9 -3 -13 -20 -11 -14 2 -26 -1 -26 -7 0 -6 7 -8
15 -4 18 7 19 -1 2 -18 -7 -7 -18 -11 -26 -8 -8 3 -11 0 -8 -5 7 -11 -36 -64
-55 -67 -18 -3 -55 -25 -42 -26 5 0 15 5 22 12 9 9 12 9 12 1 0 -7 -9 -15 -20
-18 -11 -4 -18 -10 -15 -14 2 -5 -7 -7 -20 -5 -14 1 -25 -2 -25 -8 0 -6 7 -8
15 -4 23 8 18 -4 -12 -30 -15 -12 -31 -20 -36 -17 -6 3 -7 2 -4 -4 8 -13 -35
-61 -51 -56 -8 3 -10 -1 -5 -14 6 -16 4 -16 -17 2 l-23 20 14 -22 c12 -21 11
-24 -11 -40 -14 -10 -28 -17 -33 -15 -4 1 -6 -1 -6 -5 3 -19 -2 -33 -11 -33
-5 0 -7 6 -4 14 3 8 1 17 -4 20 -5 3 -8 -7 -6 -23 3 -25 0 -28 -21 -25 -14 1
-25 -2 -25 -8 0 -6 7 -8 15 -4 18 7 19 -1 2 -18 -7 -7 -18 -11 -25 -8 -7 2
-10 -2 -6 -12 4 -11 0 -14 -16 -11 -18 3 -20 2 -10 -10 12 -14 4 -20 -22 -16
-4 0 -5 -5 -2 -13 3 -8 0 -17 -7 -22 -8 -5 -10 -3 -4 5 6 10 3 11 -16 1 -30
-16 -39 -25 -16 -17 21 8 22 1 3 -18 -7 -8 -16 -11 -20 -8 -3 4 -6 -1 -6 -10
0 -9 -4 -17 -10 -17 -5 0 -7 8 -5 18 3 9 0 5 -7 -9 -7 -14 -33 -49 -57 -77
-36 -42 -47 -49 -62 -42 -12 7 -20 6 -25 -2 -4 -6 -3 -8 3 -5 6 4 14 0 17 -9
3 -8 2 -12 -4 -9 -6 3 -10 1 -10 -5 0 -6 -12 0 -27 14 -15 14 -30 23 -35 20
-4 -3 -8 0 -8 5 0 6 -5 11 -11 11 -8 0 -8 -5 1 -15 7 -8 15 -13 19 -11 3 1 14
-5 24 -16 21 -23 14 -23 -21 -1 -36 23 -43 35 -31 49 7 8 6 14 -1 19 -6 3 -8
11 -4 16 3 6 -3 5 -14 -2 -12 -7 -18 -17 -15 -22 3 -5 9 -4 13 3 4 7 10 8 13
3 3 -5 -3 -15 -15 -22 -11 -7 -17 -8 -14 -3 8 13 -18 34 -30 24 -4 -4 -3 0 4
10 9 12 10 18 2 23 -6 4 -9 14 -6 22 3 8 2 11 -3 8 -5 -3 -12 4 -16 15 -7 23
-25 26 -43 8 -9 -9 -12 -9 -12 0 0 7 3 12 8 12 4 0 13 9 20 20 12 20 12 20
-11 5 -22 -14 -26 -14 -37 0 -9 11 -9 15 -1 15 7 0 9 5 6 10 -5 8 -12 7 -23
-2 -15 -11 -15 -11 -5 3 7 9 10 19 6 22 -3 4 -1 7 5 7 7 0 12 -6 12 -12 0 -10
2 -10 9 0 7 11 9 10 14 -3 4 -9 3 -14 -1 -11 -4 2 -9 -4 -9 -15 -2 -17 0 -17
13 -4 11 11 12 19 4 34 -8 16 -6 21 11 26 20 7 20 7 2 21 -17 13 -16 14 8 8
15 -3 29 -2 32 3 3 5 -3 10 -14 11 -43 4 -47 6 -42 20 5 11 7 11 14 0 6 -10
11 -9 23 7 9 11 16 15 16 10 0 -6 -5 -16 -10 -23 -7 -9 -7 -9 2 -2 7 6 16 6
25 -2 11 -9 12 -7 7 7 -5 13 -4 16 4 11 7 -4 12 -2 12 4 0 7 -6 10 -14 7 -11
-4 -14 2 -14 26 1 18 3 26 5 19 3 -6 9 -10 13 -7 5 3 6 13 3 23 -5 14 -3 14 9
-2 14 -18 15 -18 21 5 3 13 9 20 12 17 11 -11 -15 -49 -28 -41 -9 5 -9 3 0 -9
7 -8 9 -19 5 -23 -4 -5 -1 -5 6 -1 7 4 9 12 6 18 -5 7 -1 9 9 5 9 -3 19 -1 23
5 4 7 3 8 -4 4 -7 -4 -12 -1 -12 9 0 9 4 14 9 11 5 -3 12 1 15 10 3 8 2 12 -3
9 -6 -3 -9 9 -9 27 1 18 3 27 5 20 3 -6 9 -10 13 -7 5 3 12 0 16 -6 4 -7 3 -9
-4 -5 -6 3 -14 1 -18 -5 -4 -8 -3 -9 4 -5 8 4 12 0 13 -11 0 -13 3 -12 10 7 8
19 6 27 -7 37 -10 7 -13 13 -6 13 6 0 17 -6 24 -14 10 -11 16 -9 31 10 19 24
44 34 31 12 -4 -7 -3 -8 4 -4 6 4 8 14 5 23 -4 10 -2 14 5 9 6 -3 14 -1 18 6
4 7 4 10 -1 6 -4 -4 -15 -2 -23 5 -11 8 -14 8 -9 0 4 -6 2 -15 -5 -19 -7 -4
-10 -4 -6 1 4 4 3 14 -4 22 -6 8 -7 13 -2 12 20 -3 28 2 16 10 -9 5 -3 8 17 9
22 0 28 -3 24 -14 -3 -8 0 -14 7 -14 6 0 8 5 4 12 -5 8 -1 9 12 4 15 -6 16 -5
7 5 -10 10 -10 16 -1 28 10 13 10 14 -2 4 -8 -7 -19 -13 -24 -13 -6 0 -2 7 9
16 17 13 18 16 5 24 -9 6 -10 10 -3 10 15 0 36 -37 28 -50 -3 -6 -4 -10 0 -10
3 0 10 12 15 26 6 14 14 22 20 19 6 -4 7 1 3 11 -4 12 -3 15 5 10 8 -5 10 -1
5 11 -6 16 -5 17 12 3 18 -14 18 -14 3 9 -16 22 -16 26 0 46 9 12 19 21 22 21
14 1 49 26 47 34 -1 5 7 16 18 25 17 14 18 16 2 11 -10 -3 -16 -2 -13 3 3 4
19 8 35 9 22 0 28 -3 24 -14 -3 -8 0 -14 7 -14 6 0 8 5 4 12 -5 8 -1 9 12 4
15 -6 16 -5 7 5 -10 10 -10 16 -1 28 10 13 10 14 -2 4 -8 -7 -19 -13 -24 -13
-6 0 -2 7 9 16 13 10 16 17 9 22 -9 5 -8 10 1 19 11 10 14 9 14 -5 2 -35 5
-62 8 -62 2 0 8 12 13 26 6 14 14 22 20 19 6 -4 7 1 3 11 -4 11 -2 15 4 11 6
-4 14 0 17 9 3 8 2 12 -3 9 -6 -3 -9 9 -9 27 1 18 3 27 5 20 3 -6 9 -10 13 -7
5 3 12 0 16 -6 4 -7 3 -9 -4 -5 -6 3 -14 1 -18 -5 -4 -8 -3 -9 4 -5 8 4 12 0
13 -11 0 -13 3 -12 10 7 8 19 6 27 -7 37 -10 7 -13 13 -6 13 6 0 17 -6 24 -14
10 -11 16 -9 31 10 19 24 44 34 31 12 -4 -7 -3 -8 4 -4 6 4 8 14 5 23 -4 10
-2 14 5 9 6 -3 14 -1 18 6 4 7 4 10 -1 6 -4 -4 -15 -2 -23 5 -13 9 -14 9 -8 0
5 -9 2 -11 -7 -7 -8 3 -18 1 -22 -5 -3 -6 -1 -11 5 -11 6 0 8 -5 5 -11 -9 -13
-15 -7 -20 21 -2 12 -2 20 2 17 3 -4 15 -1 26 4 14 8 16 13 8 19 -7 4 0 7 18
8 22 0 28 -3 24 -14 -3 -8 0 -14 7 -14 6 0 8 5 4 12 -5 8 -1 9 12 4 15 -6 16
-5 7 5 -10 10 -10 16 -1 28 10 13 10 14 -2 4 -8 -7 -19 -13 -24 -13 -6 0 -2 7
9 16 17 13 18 16 5 24 -9 6 -10 10 -3 10 15 0 36 -37 28 -50 -3 -6 -4 -10 0
-10 3 0 10 12 15 26 6 14 14 22 20 19 6 -4 7 1 3 11 -4 12 -3 15 5 10 8 -5 10
-1 5 10 -5 12 -3 15 6 9 10 -6 11 -3 2 12 -10 20 -6 33 11 33 4 0 8 -5 8 -11
0 -5 -5 -7 -12 -3 -7 4 -8 3 -4 -5 4 -6 12 -8 18 -5 7 5 9 1 5 -9 -3 -10 -4
-17 -1 -17 2 0 9 12 14 26 6 14 14 22 20 19 6 -4 7 1 3 11 -4 11 -2 15 4 11 6
-4 14 0 17 9 3 8 2 12 -3 9 -6 -3 -9 9 -9 27 1 18 3 27 5 20 3 -6 9 -10 13 -7
5 3 12 0 16 -6 4 -7 3 -9 -4 -5 -6 3 -14 1 -18 -5 -4 -8 -3 -9 4 -5 8 4 12 0
13 -11 0 -13 3 -12 10 7 8 19 6 27 -7 37 -10 7 -13 13 -6 13 6 0 21 -10 32
-22 12 -13 19 -16 15 -7 -6 15 48 73 58 63 3 -3 8 1 13 8 4 7 4 10 -1 6 -4 -4
-15 -2 -23 5 -13 9 -14 9 -8 0 5 -9 2 -11 -7 -7 -8 3 -18 1 -22 -5 -3 -6 -1
-11 5 -11 6 0 8 -5 5 -11 -9 -13 -15 -7 -20 21 -2 12 -2 20 2 17 3 -4 15 -1
26 4 14 8 16 13 8 19 -7 4 0 7 18 8 22 0 28 -3 24 -14 -3 -8 0 -14 7 -14 6 0
8 5 5 10 -3 6 -1 10 6 10 7 0 9 3 6 7 -4 3 -1 13 5 22 10 13 10 14 -2 4 -8 -7
-19 -13 -24 -13 -6 0 -2 7 9 16 16 12 17 17 7 23 -11 7 -11 9 0 14 14 5 16 0
20 -43 3 -26 7 -25 18 6 6 14 14 22 20 19 6 -4 7 1 3 11 -5 13 -3 15 7 9 8 -5
11 -4 7 3 -9 14 3 43 14 36 5 -3 9 -1 9 5 0 5 -6 12 -12 15 -7 3 -4 4 7 3 12
-2 19 -10 19 -20 -2 -15 1 -16 13 -5 9 7 11 14 5 16 -6 2 -8 11 -5 20 4 13 3
14 -5 3 -7 -9 -12 -10 -16 -2 -4 6 -13 8 -19 5 -7 -4 -8 -3 -4 2 5 5 16 9 25
9 9 0 17 7 17 15 0 9 8 14 19 12 11 -2 15 1 11 7 -3 6 0 14 8 17 8 3 17 14 20
25 3 11 9 19 14 18 19 -3 27 2 15 10 -11 6 -10 10 4 15 10 4 15 4 11 0 -4 -4
-1 -14 6 -22 10 -13 9 -14 -2 -7 -10 6 -12 4 -6 -5 5 -9 4 -11 -3 -6 -8 5 -10
2 -6 -8 3 -9 1 -16 -6 -16 -6 0 -9 4 -5 9 3 5 1 12 -5 16 -5 3 -10 2 -10 -4 0
-16 12 -41 19 -41 11 0 34 51 35 76 1 26 25 56 38 48 5 -3 8 2 6 12 -2 11 3
19 12 19 8 0 15 8 15 17 0 9 4 20 9 25 5 4 6 3 2 -4 -3 -6 -1 -15 5 -19 8 -4
7 -9 -2 -16 -11 -8 -10 -9 3 -5 9 3 18 1 20 -5 2 -6 9 -4 16 5 11 12 10 15 -5
13 -10 0 -19 7 -21 19 -2 12 0 16 5 10 12 -17 51 -15 57 1 3 9 9 13 13 11 5
-3 8 8 8 23 1 16 -3 26 -7 24 -5 -3 -6 -10 -3 -15 4 -5 1 -9 -5 -9 -6 0 -8 -5
-5 -10 4 -6 1 -9 -7 -8 -7 2 -12 -2 -11 -8 1 -6 -5 -11 -12 -11 -12 0 -12 3
-2 16 10 12 9 14 -5 8 -15 -5 -16 -4 -5 13 10 18 12 18 18 3 4 -13 10 -8 28
20 13 21 27 34 33 31 5 -3 8 2 6 12 -2 11 3 19 12 19 8 0 15 7 14 16 -1 9 5
16 12 16 7 0 11 -4 9 -8 -3 -4 0 -18 5 -31 l11 -23 -5 23 c-4 19 -1 22 17 17
19 -5 20 -5 5 5 -10 6 -18 19 -17 28 0 15 1 15 7 1 5 -11 16 -15 34 -13z m33
15 c3 -6 14 -8 25 -6 13 3 18 0 14 -7 -5 -8 -1 -9 11 -4 15 5 16 4 5 -9 -11
-13 -15 -13 -21 -3 -5 7 -9 9 -9 4 0 -5 -9 -1 -19 8 -11 10 -25 15 -32 10 -8
-4 -10 -3 -5 4 9 14 23 15 31 3z m414 -18 c3 -2 -6 -1 -20 1 -13 2 -28 5 -34
5 -5 1 -3 5 5 11 9 6 20 5 30 -3 8 -6 17 -13 19 -14z m-3382 0 c0 -9 -4 -10
-14 -2 -7 6 -13 12 -13 14 0 1 6 2 13 2 8 0 14 -6 14 -14z m2000 11 c-3 -3
-12 -4 -19 -1 -8 3 -5 6 6 6 11 1 17 -2 13 -5z m-2037 -24 c0 14 37 -9 37 -24
0 -6 4 -20 8 -31 5 -16 5 -17 -4 -5 -9 13 -11 13 -11 0 0 -13 -1 -13 -10 0 -7
11 -10 11 -10 2 0 -7 -5 -10 -10 -7 -6 4 -8 11 -5 16 4 5 1 9 -4 9 -6 0 -11
-5 -11 -11 0 -5 -5 -7 -10 -4 -6 4 -8 11 -5 16 3 5 -1 6 -10 3 -8 -4 -20 -15
-26 -25 -10 -20 -29 -17 -29 4 0 9 3 8 8 -1 6 -9 12 -6 22 12 7 14 17 23 22
20 7 -5 12 10 9 29 -1 4 8 3 19 -3 14 -7 20 -7 20 0z m3100 0 c0 -5 -2 -10 -4
-10 -3 0 -8 5 -11 10 -3 6 -1 10 4 10 6 0 11 -4 11 -10z m-2289 -27 c13 -16
12 -17 -3 -4 -10 7 -18 15 -18 17 0 8 8 3 21 -13z m1123 9 c2 -4 -4 -8 -15 -8
-10 0 -19 4 -19 8 0 4 6 8 14 8 8 0 17 -4 20 -8z m-1965 -49 c7 -12 10 -14 11
-4 0 11 3 11 15 1 8 -7 15 -9 15 -6 0 4 8 2 18 -3 21 -11 26 -45 8 -60 -9 -8
-13 -7 -13 4 0 8 4 12 9 9 4 -3 8 0 8 5 0 6 -6 11 -12 11 -9 0 -9 3 1 9 10 7
6 9 -13 8 -19 -2 -23 -5 -14 -12 22 -17 21 -37 -1 -30 -11 3 -22 2 -24 -2 -5
-8 12 -12 60 -14 13 -1 20 -6 17 -11 -3 -5 -18 -7 -33 -4 -17 5 -21 4 -12 -2
9 -7 10 -12 2 -16 -6 -4 -8 -13 -4 -19 15 -24 12 -38 -7 -32 -10 3 -21 1 -25
-4 -3 -6 0 -8 8 -5 8 3 22 -2 31 -12 9 -9 20 -13 24 -10 3 4 2 10 -3 14 -12 9
-16 54 -4 46 5 -3 9 -1 9 5 0 5 -6 12 -12 14 -10 4 -10 6 -1 6 17 1 27 -19 15
-31 -7 -7 -8 -17 -2 -29 12 -22 2 -52 -16 -45 -7 3 -16 1 -19 -5 -4 -5 -11 -6
-17 -3 -6 4 -8 2 -5 -4 4 -5 15 -9 25 -7 9 1 23 -2 30 -8 10 -8 9 -13 -3 -27
-15 -17 -14 -19 7 -34 12 -9 17 -16 11 -16 -7 0 -15 5 -19 11 -4 8 -12 3 -20
-12 -7 -13 -13 -18 -14 -11 0 7 -4 11 -8 8 -4 -2 -14 -1 -21 3 -10 7 -11 13
-1 31 6 12 14 19 17 16 3 -3 0 -14 -8 -23 -7 -10 -9 -15 -5 -11 5 4 15 3 23
-3 9 -9 13 -8 13 0 0 6 -4 11 -10 11 -5 0 -7 7 -4 15 4 8 9 13 13 10 4 -2 8 2
8 10 0 8 -4 15 -9 15 -4 0 -8 -5 -8 -11 0 -5 -4 -8 -9 -4 -5 3 -13 0 -17 -6
-5 -9 -11 -7 -21 6 -7 11 -13 13 -13 6 0 -7 -5 -9 -10 -6 -6 4 -17 2 -25 -5
-11 -9 -12 -7 -8 9 5 19 -5 26 -30 22 -5 -1 -5 3 -2 9 5 8 14 7 28 -3 23 -15
47 -12 47 4 0 6 -4 8 -9 4 -5 -3 -12 -1 -16 4 -3 6 -13 7 -22 4 -12 -5 -14 -3
-8 7 5 9 4 11 -4 6 -37 -23 -67 -10 -48 21 4 6 3 14 -3 18 -5 3 -10 1 -10 -4
0 -21 -16 -11 -17 11 -2 18 0 20 8 8 7 -11 9 -8 6 14 -2 16 -12 35 -22 42 -10
8 -14 14 -8 14 7 0 15 -5 18 -10 10 -17 24 -1 20 21 -4 17 -2 19 10 9 19 -15
19 -15 -2 -36 -16 -16 -16 -17 -1 -12 18 7 42 -14 30 -27 -4 -5 -1 -5 6 -1 11
7 11 11 -1 24 -17 21 -11 53 9 45 7 -3 11 -10 7 -17 -3 -6 -2 -7 2 -3 17 15
12 33 -9 33 -11 -1 -22 3 -24 8 -4 16 62 12 76 -4 11 -13 11 -11 2 7 -8 17 -7
28 2 43 16 25 24 25 37 3z m3545 -9 c3 -8 1 -14 -4 -14 -6 0 -10 5 -10 11 0 5
-4 8 -8 5 -4 -2 -14 -1 -21 3 -9 6 -5 9 12 9 14 0 28 -7 31 -14z m-3615 -8
c10 -12 9 -14 -6 -11 -10 2 -22 4 -28 4 -5 1 -3 6 5 11 19 12 15 12 29 -4z
m3681 -76 c13 -8 13 -10 -2 -10 -9 0 -20 5 -23 10 -8 13 5 13 25 0z m-3519
-183 c-6 -8 -7 -18 -3 -22 4 -5 1 -5 -6 -1 -10 6 -10 11 -1 22 6 8 14 14 16
14 3 0 0 -6 -6 -13z m-103 -6 c2 -1 0 -6 -3 -11 -5 -8 -11 -7 -21 1 -11 9 -14
9 -14 -1 0 -8 -3 -11 -6 -7 -3 3 -3 10 0 15 5 8 18 9 44 3z m-284 -49 c3 -5
-1 -9 -9 -9 -8 0 -12 4 -9 9 3 4 7 8 9 8 2 0 6 -4 9 -8z m363 -16 c0 -8 -5
-14 -11 -13 -6 1 -10 -4 -8 -11 1 -8 -2 -11 -8 -7 -6 4 -5 13 3 25 14 24 24
26 24 6z m3338 4 c-3 -6 1 -13 9 -16 13 -5 11 -10 -10 -26 -14 -11 -27 -18
-30 -15 -3 3 4 11 16 17 16 8 19 15 11 24 -6 7 -8 16 -4 19 10 10 15 8 8 -3z
m-900 -32 c-6 -29 -27 -50 -22 -23 3 20 15 45 22 45 2 0 2 -10 0 -22z m-2745
-53 c-5 -7 -7 -15 -3 -18 3 -4 12 1 20 11 10 13 13 14 11 2 -5 -25 -21 -30
-40 -13 -19 17 -17 30 6 30 11 0 13 -4 6 -12z m3583 -18 c-5 -8 -8 -7 -11 1
-2 7 -9 9 -14 6 -7 -4 -8 -2 -4 4 4 6 13 9 21 6 8 -4 12 -11 8 -17z m-53 -27
c0 -5 -5 -10 -11 -10 -5 0 -7 5 -4 10 3 6 8 10 11 10 2 0 4 -4 4 -10z m-950
-57 c0 5 5 5 10 2 6 -4 8 -11 4 -16 -7 -12 -34 8 -34 25 0 6 5 4 10 -4 5 -8
10 -11 10 -7z m863 -18 c-3 -9 -8 -14 -10 -11 -3 3 -2 9 2 15 9 16 15 13 8 -4z
m-23 -65 c-7 -4 -11 -11 -11 -16 1 -5 -2 -9 -6 -9 -18 0 -50 -31 -47 -47 1 -9
-4 -19 -12 -22 -12 -4 -12 -2 -4 14 8 15 8 20 -2 20 -7 0 2 10 19 21 18 12 30
25 27 30 -3 5 -10 6 -16 3 -7 -4 -8 -2 -4 5 6 8 12 9 20 2 13 -11 26 -5 26 11
0 5 -5 6 -12 2 -7 -4 -8 -3 -4 5 6 9 11 9 22 0 11 -9 12 -14 4 -19z m-3240 16
c0 -2 -7 -7 -16 -10 -8 -3 -12 -2 -9 4 6 10 25 14 25 6z m2320 -36 c-6 -12
-14 -19 -17 -17 -2 3 1 15 7 27 6 12 14 19 17 17 2 -3 -1 -15 -7 -27z m-30 10
c0 -5 -5 -10 -11 -10 -5 0 -7 5 -4 10 3 6 8 10 11 10 2 0 4 -4 4 -10z m-2217
-55 c-3 -9 -8 -14 -10 -11 -3 3 -2 9 2 15 9 16 15 13 8 -4z m2177 5 c0 -5 -8
-10 -17 -10 -15 0 -16 2 -3 10 19 12 20 12 20 0z m-11 -42 c-9 -16 -14 -19
-17 -9 -2 7 2 17 9 22 20 13 21 11 8 -13z m-2156 -3 c4 -8 3 -16 -1 -19 -4 -3
-9 4 -9 15 -2 23 3 25 10 4z m43 -30 c1 -8 -2 -15 -6 -15 -5 0 -8 9 -7 20 1
21 10 18 13 -5z m1018 13 c-5 -8 -1 -9 12 -5 17 6 18 6 2 -6 -15 -12 -11 -40
6 -38 20 3 26 0 21 -9 -3 -5 4 -11 17 -11 22 -2 22 -2 2 -6 -16 -3 -20 -9 -17
-23 3 -11 10 -17 17 -13 6 3 8 3 4 -2 -4 -4 -3 -14 3 -22 9 -9 8 -13 0 -13 -6
0 -11 4 -11 8 0 4 -12 8 -27 9 -27 2 -27 2 7 -17 34 -19 34 -20 7 -15 -24 3
-27 2 -17 -11 10 -11 9 -14 -6 -14 -16 0 -17 -2 -4 -10 23 -15 29 -12 25 9 -3
14 1 18 12 14 11 -4 12 -8 2 -13 -8 -6 -5 -11 11 -20 12 -6 19 -14 16 -17 -3
-3 -12 0 -21 7 -10 8 -15 9 -15 1 0 -13 -22 -10 -32 4 -4 5 -6 0 -5 -13 1 -21
17 -33 17 -13 0 11 26 9 37 -3 4 -4 2 -6 -6 -4 -7 2 -16 -3 -19 -11 -2 -8 0
-11 5 -8 5 3 15 2 23 -4 10 -5 10 -9 3 -9 -6 0 -10 -8 -8 -18 2 -11 -3 -19
-10 -19 -8 0 -11 5 -8 10 3 6 1 7 -5 3 -7 -4 -12 -2 -12 4 0 7 6 10 13 7 8 -3
14 1 14 8 0 10 -5 11 -17 5 -10 -5 -21 -6 -25 -2 -4 4 -2 -3 4 -15 13 -26 45
-46 56 -35 5 4 4 0 -1 -8 -5 -8 -9 -19 -9 -25 -1 -5 -6 -9 -13 -7 -7 1 -12 -6
-12 -15 0 -12 -3 -14 -10 -7 -15 15 -1 47 15 34 8 -7 12 -5 12 5 0 8 -3 13 -5
10 -3 -3 -12 1 -20 8 -13 9 -14 9 -8 0 4 -7 3 -13 -2 -13 -4 0 -8 -13 -8 -29
0 -17 3 -28 7 -25 4 2 10 0 14 -6 4 -6 11 -8 16 -5 5 4 17 1 26 -5 15 -9 14
-10 -7 -4 -23 6 -24 6 -10 -11 14 -18 14 -18 -12 -1 -17 11 -28 14 -33 6 -3
-6 -3 -9 2 -8 4 2 19 -5 33 -15 13 -9 19 -17 12 -17 -15 0 -12 -31 3 -42 6 -5
5 -8 -2 -8 -7 0 -13 -5 -13 -11 0 -5 5 -7 10 -4 6 3 10 2 10 -3 0 -6 -7 -13
-16 -16 -10 -4 -13 -2 -8 7 4 6 4 9 -1 5 -4 -4 -15 -2 -24 5 -14 11 -15 10 -1
-7 14 -18 13 -19 -2 -13 -12 4 -15 2 -11 -9 4 -11 9 -12 19 -3 8 7 14 7 14 1
0 -15 -26 -33 -36 -25 -5 4 -4 2 3 -6 6 -7 9 -20 6 -27 -3 -8 0 -14 7 -14 6 0
9 4 5 9 -3 5 -1 12 5 16 6 4 8 9 6 13 -2 4 2 12 9 19 10 10 14 9 19 -3 3 -8 2
-13 -3 -10 -5 3 -11 -1 -14 -9 -4 -9 -1 -12 9 -8 7 3 14 -1 14 -8 0 -7 -3 -9
-7 -6 -3 4 -12 2 -19 -4 -10 -8 -11 -16 -3 -31 7 -13 7 -18 1 -14 -6 3 -12 1
-14 -6 -3 -7 -7 -5 -11 6 -4 10 -3 15 3 11 6 -3 10 -1 10 5 0 6 -8 10 -17 9
-34 -3 -42 1 -40 21 1 12 7 18 14 16 7 -3 10 1 6 9 -3 8 -9 12 -14 9 -13 -8
-11 10 4 26 10 12 9 12 -4 2 -9 -6 -18 -10 -20 -7 -3 2 -5 -4 -5 -15 0 -10 4
-16 8 -14 5 3 3 -6 -3 -20 -7 -14 -17 -22 -22 -19 -8 5 -7 8 1 11 7 2 12 8 12
13 0 4 -6 6 -14 3 -8 -3 -17 0 -22 7 -4 8 -3 10 4 5 22 -13 34 5 17 24 -9 10
-14 23 -11 28 4 6 -3 8 -16 4 -15 -4 -19 -2 -13 7 6 10 3 11 -15 1 -12 -6 -24
-9 -28 -6 -3 3 1 6 8 6 7 0 10 3 6 8 -7 7 -11 8 -38 11 -9 1 -9 4 2 11 10 6
20 4 32 -7 10 -9 18 -13 18 -10 0 4 0 10 0 15 0 4 -3 7 -7 8 -20 2 -42 17 -37
25 3 5 -2 6 -10 3 -13 -5 -32 16 -35 41 -1 6 -16 9 -34 8 -18 0 -26 1 -19 4
18 7 4 23 -16 17 -14 -5 -15 -4 -2 5 9 6 18 7 24 1 14 -14 23 -12 23 3 0 9
-10 13 -27 11 -20 -2 -30 4 -45 28 -10 17 -13 28 -7 24 17 -10 25 13 10 32
-11 15 -11 15 3 5 9 -7 20 -9 24 -5 5 4 5 1 0 -6 -6 -11 -3 -12 14 -3 25 14
26 17 5 25 -9 4 -13 2 -8 -5 4 -7 -2 -6 -17 1 -33 17 -34 19 -13 19 53 -1 84
5 73 12 -7 4 -17 5 -21 3 -4 -3 -15 -1 -24 4 -15 8 -15 10 0 15 11 5 15 3 10
-4 -4 -7 -1 -10 7 -7 8 3 13 14 11 24 -2 15 -1 16 6 5 6 -7 16 -10 23 -7 8 4
5 0 -5 -8 -11 -9 -15 -16 -9 -16 14 0 34 25 26 33 -3 4 -1 13 5 20 7 8 9 16 6
20 -3 3 6 4 21 3 14 -2 33 3 41 11 16 16 19 48 4 38 -6 -4 -8 -10 -5 -15 3 -4
-3 -14 -12 -21 -10 -8 -14 -9 -10 -2 4 6 3 14 -3 18 -6 4 -8 11 -4 16 3 5 10
7 15 4 5 -4 9 -2 9 3 0 15 28 23 36 10 5 -7 2 -8 -6 -3 -9 5 -11 4 -6 -3 5 -9
13 -8 30 3 12 8 26 12 31 8 4 -5 5 -3 2 3 -4 7 0 14 8 17 8 4 16 -2 20 -14 7
-20 7 -20 20 -2 7 10 17 14 21 10 5 -4 2 -13 -6 -18 -13 -9 -13 -10 0 -6 8 2
16 14 16 26 1 21 0 21 -23 6 -18 -12 -24 -13 -22 -3 3 25 -1 38 -12 38 -5 0
-8 -4 -4 -9 3 -6 -4 -15 -15 -21 -11 -6 -20 -7 -20 -3 0 4 -7 0 -14 -10 -12
-15 -14 -15 -19 -2 -4 8 -3 14 1 14 19 -3 26 2 13 10 -9 6 -10 11 -2 15 6 4
11 2 11 -3 0 -6 9 -11 21 -11 21 0 21 0 -2 21 -13 11 -17 17 -9 12 8 -4 25 -8
37 -8 18 -1 22 4 19 21 -3 12 -2 25 1 28 11 10 15 7 7 -6z m-29 -18 c-3 -5
-12 -10 -18 -10 -7 0 -6 4 3 10 19 12 23 12 15 0z m1935 -22 c0 -19 -16 -5
-17 14 -2 18 0 20 7 8 5 -8 10 -18 10 -22z m-30 -18 c0 -5 -5 -10 -11 -10 -5
0 -7 5 -4 10 3 6 8 10 11 10 2 0 4 -4 4 -10z m-940 -57 c0 5 5 5 10 2 6 -4 8
-11 4 -16 -7 -12 -34 8 -34 25 0 6 5 4 10 -4 5 -8 10 -11 10 -7z m-1944 -45
c-10 -6 -22 -6 -26 -2 -5 5 3 10 18 11 22 1 24 0 8 -9z m841 6 c-3 -3 -12 -4
-19 -1 -8 3 -5 6 6 6 11 1 17 -2 13 -5z m-45 -31 c-6 -2 -9 -10 -6 -15 4 -7 2
-8 -5 -4 -13 9 -5 26 12 25 9 0 8 -2 -1 -6z m1068 -33 c-6 -12 -14 -19 -17
-17 -2 3 1 15 7 27 6 12 14 19 17 17 2 -3 -1 -15 -7 -27z m885 20 c-3 -5 -1
-10 5 -10 6 0 8 -5 4 -11 -4 -8 -9 -7 -15 2 -7 12 -3 29 7 29 3 0 2 -4 -1 -10z
m-2757 -90 c-25 -20 -31 -20 -23 1 3 8 15 15 26 16 19 2 18 1 -3 -17z m2698 7
c5 4 -3 -5 -17 -21 -23 -24 -30 -26 -45 -17 -11 7 -13 10 -4 8 20 -6 52 11 45
24 -4 5 -11 6 -17 3 -7 -4 -8 -2 -4 5 6 8 12 9 20 2 7 -6 17 -8 22 -4z m-1616
-111 c0 -2 -7 -7 -16 -10 -8 -3 -12 -2 -9 4 6 10 25 14 25 6z m1480 -6 c0 -5
-5 -10 -11 -10 -5 0 -7 5 -4 10 3 6 8 10 11 10 2 0 4 -4 4 -10z m-920 -20 c0
-5 -8 -10 -17 -10 -15 0 -16 2 -3 10 19 12 20 12 20 0z m-848 -17 c-9 -4 -10
-8 -2 -18 8 -10 8 -15 -1 -21 -8 -4 -9 -3 -5 5 4 6 0 14 -9 17 -13 6 -14 8 -3
15 7 5 18 8 23 8 6 0 4 -3 -3 -6z m837 -25 c-9 -16 -14 -19 -17 -9 -2 7 2 17
9 22 20 13 21 11 8 -13z m896 2 c-3 -5 -11 -10 -16 -10 -6 0 -7 5 -4 10 3 6
11 10 16 10 6 0 7 -4 4 -10z m-2520 -22 c-9 -6 -19 -7 -22 -4 -4 3 -1 6 6 6 7
0 9 4 6 10 -4 6 1 7 11 3 15 -6 15 -7 -1 -15z m835 -13 c0 -11 -29 -11 -33 -1
-4 10 1 12 14 9 10 -3 19 -7 19 -8z m-331 -55 c9 0 23 6 30 13 11 10 11 8 1
-9 -19 -30 -61 -22 -59 11 0 6 3 4 6 -2 2 -7 12 -13 22 -13z m55 -22 c-5 -8
-1 -9 10 -5 10 4 15 3 11 -3 -8 -12 -16 -12 -34 -1 -7 5 -10 14 -7 20 4 6 12
9 17 5 5 -3 6 -10 3 -16z m377 -15 c12 -16 12 -17 -2 -6 -12 10 -18 10 -29 0
-11 -9 -10 -7 0 7 14 18 13 19 -2 13 -18 -6 -33 5 -21 16 8 8 36 -8 54 -30z
m554 16 c-4 -5 -1 -9 6 -9 8 0 5 -8 -6 -20 -14 -15 -21 -17 -32 -9 -7 6 -13
17 -13 23 0 7 3 7 8 1 15 -21 32 -15 28 10 -3 15 -1 23 5 20 5 -4 7 -11 4 -16z
m920 -10 c4 -5 -3 -8 -14 -6 -28 4 -34 12 -11 14 11 1 22 -2 25 -8z m-2417
-29 c-25 -20 -31 -20 -23 1 3 8 15 15 26 16 19 2 18 1 -3 -17z m375 -33 c4 3
7 4 7 1 0 -3 -8 -12 -19 -22 -16 -15 -19 -15 -31 -1 -11 13 -11 16 1 13 8 -2
13 3 11 11 -2 11 0 12 11 3 8 -7 17 -9 20 -5z m647 -43 c0 -2 -9 0 -20 6 -11
6 -20 13 -20 16 0 2 9 0 20 -6 11 -6 20 -13 20 -16z m-1000 -12 c0 -5 -12 -14
-27 -21 l-28 -12 25 21 c29 22 30 23 30 12z m280 -27 c0 -12 -19 -12 -23 0 -4
9 -1 12 9 8 7 -3 14 -7 14 -8z m-290 -77 c0 -4 -4 -8 -9 -8 -6 0 -12 4 -15 8
-3 5 1 9 9 9 8 0 15 -4 15 -9z m200 2 c0 -5 0 -12 0 -15 0 -14 -13 -8 -16 8
-1 9 2 17 7 17 5 0 9 -4 9 -10z m1044 -15 c-5 -11 -1 -14 12 -9 18 5 18 5 1
-6 -10 -7 -21 -9 -24 -6 -6 6 3 36 11 36 3 0 3 -7 0 -15z m826 -90 c0 -5 -5
-3 -10 5 -5 8 -10 20 -10 25 0 6 5 3 10 -5 5 -8 10 -19 10 -25z m23 29 c3 -3
3 -13 0 -21 -5 -12 -7 -12 -14 -1 -15 23 -4 40 14 22z m-1215 -18 c-7 -8 -17
-12 -22 -9 -4 3 -2 9 5 14 22 13 31 11 17 -5z m1132 -48 c0 -4 -4 -8 -9 -8 -6
0 -12 4 -15 8 -3 5 1 9 9 9 8 0 15 -4 15 -9z m-701 -38 c6 -18 6 -28 1 -25 -6
4 -10 14 -10 23 0 15 -2 15 -11 2 -8 -12 -9 -10 -4 9 5 17 4 22 -5 16 -9 -5
-11 -4 -6 4 10 16 22 6 35 -29z m661 0 c0 -5 -5 -10 -11 -10 -5 0 -7 5 -4 10
3 6 8 10 11 10 2 0 4 -4 4 -10z m-980 -40 c0 -5 5 -10 11 -10 5 0 7 5 4 10 -3
6 -2 10 3 10 6 0 13 -7 16 -16 3 -8 2 -12 -4 -9 -6 3 -10 2 -10 -4 0 -5 6 -11
13 -14 6 -2 9 -7 6 -11 -3 -3 -18 8 -34 24 -16 17 -23 30 -17 30 7 0 12 -4 12
-10z m920 -21 c0 -5 -4 -9 -8 -9 -5 0 -9 7 -9 15 0 8 4 12 9 9 4 -3 8 -9 8
-15z m-54 -64 c-1 -8 -5 -17 -8 -21 -5 -4 -4 16 1 34 3 9 9 -1 7 -13z m-708
-50 c-3 -3 -9 2 -12 12 -6 14 -5 15 5 6 7 -7 10 -15 7 -18z m612 -25 c0 -5 -5
-10 -11 -10 -5 0 -7 5 -4 10 3 6 8 10 11 10 2 0 4 -4 4 -10z m-533 -45 c0 -8
-4 -12 -9 -9 -4 3 -8 1 -8 -3 0 -13 40 -34 50 -28 6 4 10 1 10 -4 0 -6 -5 -11
-11 -11 -14 0 11 -24 34 -33 9 -3 16 -12 15 -18 -2 -6 3 -14 10 -16 8 -3 10 1
5 14 -7 19 -5 18 17 -11 10 -13 10 -17 3 -12 -7 4 -13 3 -13 -2 0 -9 24 -24
42 -26 3 -1 10 -5 15 -10 5 -5 3 -6 -4 -2 -7 4 -13 2 -13 -3 0 -10 22 -16 43
-12 5 1 6 -3 3 -8 -4 -5 -1 -11 6 -13 7 -3 8 -10 4 -17 -6 -9 -42 22 -121 101
-98 99 -110 114 -96 125 9 7 16 13 17 13 0 0 1 -7 1 -15z m499 -20 c-11 -8
-14 -15 -8 -15 7 0 12 -4 12 -9 0 -5 -8 -8 -17 -6 -10 1 -24 -7 -31 -19 -11
-20 -12 -19 -9 9 2 17 9 30 15 30 6 0 17 6 24 13 6 6 17 12 23 12 5 0 1 -7 -9
-15z m-86 -100 c0 -12 -19 -12 -23 0 -4 9 -1 12 9 8 7 -3 14 -7 14 -8z m-256
-13 c3 -5 -1 -9 -9 -9 -8 0 -12 4 -9 9 3 4 7 8 9 8 2 0 6 -4 9 -8z"/>
<path d="M2515 4111 c-3 -5 -2 -12 3 -15 5 -3 9 1 9 9 0 17 -3 19 -12 6z"/>
<path d="M2425 4090 c3 -5 8 -10 11 -10 2 0 4 5 4 10 0 6 -5 10 -11 10 -5 0
-7 -4 -4 -10z"/>
<path d="M2453 4085 c0 -8 4 -12 9 -9 5 3 6 10 3 15 -9 13 -12 11 -12 -6z"/>
<path d="M2380 4056 c0 -2 8 -10 18 -17 15 -13 16 -12 3 4 -13 16 -21 21 -21
13z"/>
<path d="M2630 4058 c0 -2 9 -11 20 -21 11 -9 20 -13 20 -7 0 5 -9 14 -20 20
-11 6 -20 9 -20 8z"/>
<path d="M2660 4006 c0 -2 8 -10 18 -17 15 -13 16 -12 3 4 -13 16 -21 21 -21
13z"/>
<path d="M2310 3941 c0 -6 4 -12 8 -15 5 -3 9 1 9 9 0 8 -4 15 -9 15 -4 0 -8
-4 -8 -9z"/>
<path d="M2216 3886 c4 -9 0 -18 -9 -22 -19 -7 -52 -54 -38 -54 5 0 12 8 15
18 3 9 17 24 32 33 23 14 24 17 9 29 -13 11 -15 10 -9 -4z"/>
<path d="M2250 3879 c0 -5 5 -7 10 -4 6 3 10 8 10 11 0 2 -4 4 -10 4 -5 0 -10
-5 -10 -11z"/>
<path d="M2216 3842 c-3 -5 1 -9 9 -9 8 0 12 4 9 9 -3 4 -7 8 -9 8 -2 0 -6 -4
-9 -8z"/>
<path d="M2918 3792 c-13 -5 -7 -11 24 -25 l41 -17 -23 25 c-13 14 -24 25 -24
24 -1 0 -9 -3 -18 -7z"/>
<path d="M3026 3681 c-4 -5 -2 -12 3 -15 5 -4 12 -2 15 3 4 5 2 12 -3 15 -5 4
-12 2 -15 -3z"/>
<path d="M2780 3540 c0 -5 -8 -7 -17 -4 -15 5 -15 4 -3 -5 16 -11 15 -13 -15
-29 -18 -10 -18 -11 7 -8 15 1 33 7 40 12 15 11 23 11 56 0 12 -4 20 -12 17
-17 -4 -5 1 -12 10 -15 10 -4 13 -13 10 -24 -3 -10 -1 -21 5 -25 6 -3 8 -10 5
-15 -10 -16 10 -18 30 -3 18 14 18 15 1 9 -13 -4 -17 -2 -13 8 3 7 -1 23 -8
34 -8 10 -11 22 -7 26 3 4 -2 4 -13 1 -20 -7 -20 -6 -1 9 20 16 12 21 -23 16
-10 -1 -12 5 -8 22 5 19 4 20 -6 8 -15 -19 -37 -24 -37 -8 0 6 -7 3 -16 -8
-15 -18 -15 -18 -9 4 4 12 4 22 1 22 -3 0 -6 -4 -6 -10z m125 -100 c3 -5 1
-10 -4 -10 -6 0 -11 5 -11 10 0 6 2 10 4 10 3 0 8 -4 11 -10z"/>
<path d="M3155 3520 c-3 -5 -1 -10 4 -10 6 0 11 5 11 10 0 6 -2 10 -4 10 -3 0
-8 -4 -11 -10z"/>
<path d="M2675 3491 c-3 -5 -2 -12 3 -15 5 -3 9 1 9 9 0 17 -3 19 -12 6z"/>
<path d="M2910 3486 c0 -8 4 -17 9 -20 5 -4 7 3 4 14 -6 23 -13 26 -13 6z"/>
<path d="M2585 3399 c-6 -8 -4 -10 5 -4 10 6 12 4 6 -11 -6 -15 -5 -17 5 -6 9
9 10 15 2 23 -8 8 -13 7 -18 -2z"/>
<path d="M1850 3380 c0 -5 5 -10 11 -10 5 0 7 5 4 10 -3 6 -8 10 -11 10 -2 0
-4 -4 -4 -10z"/>
<path d="M3395 3269 c-4 -6 -5 -12 -2 -15 2 -3 7 2 10 11 7 17 1 20 -8 4z"/>
<path d="M2480 3260 c-10 -6 -11 -10 -2 -10 6 0 12 -4 12 -10 0 -5 -5 -9 -11
-7 -6 1 -17 -7 -25 -19 -12 -18 -12 -21 0 -21 8 0 15 3 14 6 -2 19 3 31 11 27
4 -3 17 4 27 15 17 19 17 20 -1 13 -13 -5 -16 -4 -11 4 9 14 6 15 -14 2z"/>
<path d="M2426 3242 c-3 -5 1 -9 9 -9 8 0 15 4 15 9 0 4 -4 8 -9 8 -6 0 -12
-4 -15 -8z"/>
<path d="M2926 3235 c4 -8 8 -15 10 -15 2 0 4 7 4 15 0 8 -4 15 -10 15 -5 0
-7 -7 -4 -15z"/>
<path d="M2421 3204 c0 -11 3 -14 6 -6 3 7 2 16 -1 19 -3 4 -6 -2 -5 -13z"/>
<path d="M2396 3197 c3 -10 9 -15 12 -12 3 3 0 11 -7 18 -10 9 -11 8 -5 -6z"/>
<path d="M3373 3135 c0 -8 4 -12 9 -9 5 3 6 10 3 15 -9 13 -12 11 -12 -6z"/>
<path d="M2331 3114 c0 -11 3 -14 6 -6 3 7 2 16 -1 19 -3 4 -6 -2 -5 -13z"/>
<path d="M2930 3115 c0 -8 2 -15 4 -15 2 0 6 7 10 15 3 8 1 15 -4 15 -6 0 -10
-7 -10 -15z"/>
<path d="M2280 3080 c0 -5 5 -10 11 -10 5 0 7 5 4 10 -3 6 -8 10 -11 10 -2 0
-4 -4 -4 -10z"/>
<path d="M2310 3080 c0 -5 5 -10 10 -10 6 0 10 5 10 10 0 6 -4 10 -10 10 -5 0
-10 -4 -10 -10z"/>
<path d="M2268 3053 c7 -3 16 -2 19 1 4 3 -2 6 -13 5 -11 0 -14 -3 -6 -6z"/>
<path d="M2930 3045 c0 -8 4 -15 10 -15 5 0 7 7 4 15 -4 8 -8 15 -10 15 -2 0
-4 -7 -4 -15z"/>
<path d="M3290 3039 c0 -5 5 -7 10 -4 6 3 10 8 10 11 0 2 -4 4 -10 4 -5 0 -10
-5 -10 -11z"/>
<path d="M2255 3020 l-29 -19 29 3 c17 2 29 10 31 20 3 20 5 20 -31 -4z"/>
<path d="M3269 3010 c-7 -48 -7 -63 0 -51 5 7 13 11 19 7 14 -8 9 21 -6 36 -7
7 -12 10 -13 8z"/>
<path d="M2194 2979 c-2 -4 4 -13 13 -20 9 -8 14 -9 10 -3 -8 14 20 27 35 17
7 -3 8 -1 4 5 -7 12 -54 13 -62 1z"/>
<path d="M2930 2955 c0 -8 2 -15 4 -15 2 0 6 7 10 15 3 8 1 15 -4 15 -6 0 -10
-7 -10 -15z"/>
<path d="M2157 2928 c9 -10 19 -15 22 -12 3 4 0 9 -7 11 -6 3 -10 8 -8 12 3 4
-1 8 -9 8 -13 0 -12 -4 2 -19z"/>
<path d="M2909 2948 c-9 -34 -5 -58 9 -58 10 0 13 3 7 8 -6 4 -10 17 -9 30 1
17 -3 31 -7 20z"/>
<path d="M2090 2921 c0 -6 4 -13 10 -16 6 -3 7 1 4 9 -7 18 -14 21 -14 7z"/>
<path d="M2953 2875 c0 -8 4 -12 9 -9 5 3 6 10 3 15 -9 13 -12 11 -12 -6z"/>
<path d="M1827 2856 c-15 -12 -15 -15 -2 -26 8 -7 16 -11 16 -9 2 6 6 49 5 49
0 0 -9 -7 -19 -14z"/>
<path d="M2046 2837 c3 -10 9 -15 12 -12 3 3 0 11 -7 18 -10 9 -11 8 -5 -6z"/>
<path d="M2936 2833 c-6 -14 -5 -15 5 -6 7 7 10 15 7 18 -3 3 -9 -2 -12 -12z"/>
<path d="M1870 2766 c0 -2 7 -7 16 -10 8 -3 12 -2 9 4 -6 10 -25 14 -25 6z"/>
<path d="M3006 2758 c3 -4 9 -8 15 -8 5 0 9 4 9 8 0 5 -7 9 -15 9 -8 0 -12 -4
-9 -9z"/>
<path d="M1935 2740 c-3 -5 -1 -10 4 -10 6 0 11 5 11 10 0 6 -2 10 -4 10 -3 0
-8 -4 -11 -10z"/>
<path d="M2947 2733 c3 -7 6 -13 8 -13 2 0 5 6 8 13 3 8 -1 14 -8 14 -7 0 -11
-6 -8 -14z"/>
<path d="M2913 2725 c0 -8 5 -15 10 -15 5 0 3 -8 -4 -17 -13 -16 -12 -17 3 -5
14 11 18 11 25 -3 7 -12 12 -8 26 22 13 29 14 34 2 19 -8 -11 -15 -24 -15 -29
0 -4 -7 -2 -15 7 -8 8 -15 19 -15 25 0 6 -4 11 -8 11 -5 0 -9 -7 -9 -15z"/>
<path d="M1915 2711 c-3 -5 0 -13 6 -17 7 -4 9 -3 5 4 -3 5 0 13 6 15 9 4 10
6 1 6 -6 1 -14 -3 -18 -8z"/>
<path d="M1858 2703 c-4 -25 -2 -39 7 -45 7 -5 6 -8 -1 -8 -6 0 -18 8 -25 17
-10 11 -10 14 -1 9 6 -4 12 -5 12 -2 0 3 -9 10 -20 16 -18 10 -19 9 -9 -14 14
-30 34 -39 58 -26 10 5 21 7 23 4 3 -2 11 2 17 10 10 12 8 13 -10 9 -19 -5
-21 -3 -17 15 4 13 2 20 -4 16 -5 -3 -8 -15 -5 -25 3 -11 1 -19 -4 -19 -9 0
-13 14 -10 38 2 13 -8 17 -11 5z"/>
<path d="M2119 3793 c-13 -16 -12 -17 4 -4 9 7 17 15 17 17 0 8 -8 3 -21 -13z"/>
<path d="M3988 2653 c7 -3 16 -2 19 1 4 3 -2 6 -13 5 -11 0 -14 -3 -6 -6z"/>
<path d="M3905 2640 c-4 -6 -10 -8 -14 -5 -5 2 -7 -7 -5 -20 2 -26 -11 -34
-19 -12 -3 6 -6 8 -6 2 0 -5 4 -17 9 -25 9 -13 12 -13 21 3 6 9 14 15 19 12 5
-3 12 0 16 6 4 8 3 9 -5 5 -8 -5 -10 0 -7 18 5 27 2 33 -9 16z"/>
<path d="M4050 2620 c0 -5 5 -10 11 -10 5 0 7 5 4 10 -3 6 -8 10 -11 10 -2 0
-4 -4 -4 -10z"/>
<path d="M3724 2462 c0 -9 -3 -17 -9 -17 -31 -1 -44 -44 -16 -53 7 -2 11 3 9
14 -2 15 3 19 22 17 14 -1 19 1 13 3 -7 3 -13 10 -13 15 0 6 5 7 10 4 6 -3 10
-1 10 5 0 6 5 8 10 5 6 -3 10 -1 10 4 0 6 -3 11 -7 12 -5 0 -15 2 -24 4 -10 2
-16 -3 -15 -13z"/>
<path d="M3600 2340 c-13 -9 -13 -10 0 -10 12 -1 11 -3 -3 -11 -9 -5 -21 -8
-26 -4 -5 3 -8 -3 -6 -12 2 -10 4 -21 4 -25 1 -5 6 -8 12 -8 5 0 7 5 4 10 -5
8 5 13 25 12 3 0 5 13 5 29 1 16 1 29 0 29 0 0 -7 -5 -15 -10z"/>
<path d="M4030 2280 c0 -5 5 -10 11 -10 5 0 7 5 4 10 -3 6 -8 10 -11 10 -2 0
-4 -4 -4 -10z"/>
<path d="M3515 2220 c3 -5 8 -10 11 -10 2 0 4 5 4 10 0 6 -5 10 -11 10 -5 0
-7 -4 -4 -10z"/>
<path d="M3385 2120 c-3 -5 -1 -10 4 -10 6 0 11 5 11 10 0 6 -2 10 -4 10 -3 0
-8 -4 -11 -10z"/>
<path d="M3617 1879 c7 -7 15 -10 18 -7 3 3 -2 9 -12 12 -14 6 -15 5 -6 -5z"/>
<path d="M3193 1855 c0 -8 4 -12 9 -9 5 3 6 10 3 15 -9 13 -12 11 -12 -6z"/>
<path d="M3595 1840 c3 -5 8 -10 11 -10 2 0 4 5 4 10 0 6 -5 10 -11 10 -5 0
-7 -4 -4 -10z"/>
<path d="M3573 1825 c0 -8 4 -12 9 -9 5 3 6 10 3 15 -9 13 -12 11 -12 -6z"/>
<path d="M3065 1800 c-3 -5 -1 -10 4 -10 6 0 11 5 11 10 0 6 -2 10 -4 10 -3 0
-8 -4 -11 -10z"/>
<path d="M3515 1760 c3 -5 8 -10 11 -10 2 0 4 5 4 10 0 6 -5 10 -11 10 -5 0
-7 -4 -4 -10z"/>
<path d="M3000 1680 c-9 -6 -10 -10 -3 -10 6 0 15 5 18 10 8 12 4 12 -15 0z"/>
<path d="M3316 1565 c-3 -8 -1 -15 4 -15 6 0 10 7 10 15 0 8 -2 15 -4 15 -2 0
-6 -7 -10 -15z"/>
<path d="M2811 1549 c-13 -10 -18 -19 -12 -19 6 0 3 -8 -6 -18 -10 -11 -25
-18 -33 -17 -8 2 -23 -8 -33 -21 -13 -18 -15 -24 -4 -24 7 0 18 5 24 11 6 6
19 12 29 13 11 2 18 10 16 20 -2 9 4 16 13 16 10 0 13 -5 9 -12 -4 -7 -3 -8 4
-4 6 4 8 14 5 23 -4 10 -2 14 5 9 6 -3 14 -2 17 4 4 6 3 10 -2 9 -20 -3 -27 2
-13 11 8 5 12 11 10 14 -3 2 -16 -4 -29 -15z"/>
<path d="M2736 1427 c3 -10 9 -15 12 -12 3 3 0 11 -7 18 -10 9 -11 8 -5 -6z"/>
<path d="M3161 1404 c0 -11 3 -14 6 -6 3 7 2 16 -1 19 -3 4 -6 -2 -5 -13z"/>
<path d="M2713 1375 c0 -8 4 -12 9 -9 5 3 6 10 3 15 -9 13 -12 11 -12 -6z"/>
<path d="M2585 1320 c-3 -5 -1 -10 4 -10 6 0 11 5 11 10 0 6 -2 10 -4 10 -3 0
-8 -4 -11 -10z"/>
<path d="M2990 1240 c0 -5 5 -10 11 -10 5 0 7 5 4 10 -3 6 -8 10 -11 10 -2 0
-4 -4 -4 -10z"/>
<path d="M2520 1200 c-9 -6 -10 -10 -3 -10 6 0 15 5 18 10 8 12 4 12 -15 0z"/>
<path d="M2916 1163 c-6 -14 -5 -15 5 -6 7 7 10 15 7 18 -3 3 -9 -2 -12 -12z"/>
<path d="M2395 1130 c-3 -5 -1 -10 4 -10 6 0 11 5 11 10 0 6 -2 10 -4 10 -3 0
-8 -4 -11 -10z"/>
<path d="M2335 1011 c-3 -5 -2 -12 3 -15 5 -3 9 1 9 9 0 17 -3 19 -12 6z"/>
<path d="M2370 945 c0 -5 5 -17 10 -25 5 -8 10 -10 10 -5 0 6 -5 17 -10 25 -5
8 -10 11 -10 5z"/>
<path d="M2426 885 c-10 -8 -24 -11 -30 -8 -6 4 -6 0 1 -9 7 -8 9 -19 5 -23
-4 -5 -1 -5 6 -1 7 5 11 10 8 13 -3 3 5 14 17 24 26 22 21 25 -7 4z"/>
<path d="M2606 858 c3 -5 10 -6 15 -3 13 9 11 12 -6 12 -8 0 -12 -4 -9 -9z"/>
<path d="M2590 840 c0 -5 5 -10 11 -10 5 0 7 5 4 10 -3 6 -8 10 -11 10 -2 0
-4 -4 -4 -10z"/>
<path d="M2490 823 c0 -6 8 -17 18 -24 16 -13 16 -13 2 6 -8 11 -16 22 -17 24
-2 2 -3 0 -3 -6z"/>
<path d="M2556 821 c-3 -5 2 -15 12 -22 15 -12 16 -12 5 2 -7 9 -10 19 -6 22
3 4 4 7 0 7 -3 0 -8 -4 -11 -9z"/>
<path d="M980 2642 c0 -4 14 -13 30 -19 30 -11 36 -8 22 12 -8 12 -52 18 -52
7z"/>
<path d="M957 2583 c-10 -9 -9 -23 1 -23 5 0 9 7 9 15 0 17 -1 18 -10 8z"/>
<path d="M970 2486 c0 -2 7 -7 16 -10 8 -3 12 -2 9 4 -6 10 -25 14 -25 6z"/>
<path d="M840 2441 c0 -5 5 -13 10 -16 8 -5 8 -11 0 -20 -8 -9 -6 -14 6 -19
12 -5 15 -2 10 10 -5 12 -1 14 17 9 20 -5 20 -5 -3 9 -14 8 -24 18 -22 22 2 5
-1 10 -7 12 -6 2 -11 -1 -11 -7z"/>
<path d="M995 2390 c-3 -6 1 -7 9 -4 18 7 21 14 7 14 -6 0 -13 -4 -16 -10z"/>
<path d="M968 2353 c6 -2 9 -10 6 -15 -4 -7 -2 -8 5 -4 13 9 5 26 -12 25 -9 0
-8 -2 1 -6z"/>
<path d="M1033 2335 c0 -8 4 -12 9 -9 5 3 6 10 3 15 -9 13 -12 11 -12 -6z"/>
<path d="M2066 1798 c3 -4 9 -8 15 -8 5 0 9 4 9 8 0 5 -7 9 -15 9 -8 0 -12 -4
-9 -9z"/>
<path d="M1956 1702 c-3 -5 1 -9 9 -9 8 0 12 4 9 9 -3 4 -7 8 -9 8 -2 0 -6 -4
-9 -8z"/>
<path d="M2030 1685 c0 -7 30 -13 34 -7 3 4 -4 9 -15 9 -10 1 -19 0 -19 -2z"/>
<path d="M1880 1665 c-9 -11 -9 -15 -1 -15 7 0 9 -5 5 -12 -4 -7 -3 -8 4 -4 6
4 8 14 5 24 -6 15 -5 16 13 2 18 -14 18 -14 5 3 -16 21 -16 21 -31 2z"/>
<path d="M1765 1520 c-4 -6 -2 -17 5 -24 11 -15 46 -10 57 7 3 6 1 7 -6 3 -15
-10 -53 3 -46 15 4 5 4 9 1 9 -3 0 -8 -5 -11 -10z"/>
<path d="M1879 1443 c-5 -29 -5 -53 -1 -48 7 6 12 55 6 55 -2 0 -5 -3 -5 -7z"/>
<path d="M2080 1400 c8 -5 20 -10 25 -10 6 0 3 5 -5 10 -8 5 -19 10 -25 10 -5
0 -3 -5 5 -10z"/>
<path d="M1915 1380 c3 -5 8 -10 11 -10 2 0 4 5 4 10 0 6 -5 10 -11 10 -5 0
-7 -4 -4 -10z"/>
<path d="M2055 1379 c-4 -5 -3 -9 2 -8 21 4 34 -2 31 -14 -2 -7 1 -14 6 -15 6
-1 11 4 12 12 2 17 -43 40 -51 25z"/>
<path d="M2045 1220 c3 -5 8 -10 11 -10 2 0 4 5 4 10 0 6 -5 10 -11 10 -5 0
-7 -4 -4 -10z"/>
<path d="M2450 436 c0 -2 8 -10 18 -17 15 -13 16 -12 3 4 -13 16 -21 21 -21
13z"/>
<path d="M2570 4532 c0 -7 -4 -10 -10 -7 -17 10 -11 -4 10 -25 11 -11 20 -15
20 -9 0 5 4 8 8 5 4 -2 14 0 22 6 12 8 12 9 -2 4 -11 -3 -23 3 -33 17 -8 12
-15 16 -15 9z"/>
<path d="M2406 4473 c-6 -14 -5 -15 5 -6 7 7 10 15 7 18 -3 3 -9 -2 -12 -12z"/>
<path d="M2666 4432 c-5 -9 19 -44 26 -37 3 3 17 -13 32 -35 27 -41 46 -51 46
-25 0 8 -4 15 -9 15 -5 0 -13 9 -16 20 -3 11 -13 20 -21 20 -8 0 -14 5 -14 10
0 6 -8 10 -17 10 -14 0 -15 2 -5 9 11 7 11 9 -2 14 -8 3 -17 3 -20 -1z"/>
<path d="M2313 4385 c0 -8 4 -12 9 -9 5 3 6 10 3 15 -9 13 -12 11 -12 -6z"/>
<path d="M2206 4278 c3 -5 10 -6 15 -3 13 9 11 12 -6 12 -8 0 -12 -4 -9 -9z"/>
<path d="M2847 4273 c3 -7 6 -13 8 -13 2 0 5 6 8 13 3 8 -1 14 -8 14 -7 0 -11
-6 -8 -14z"/>
<path d="M2865 4220 c-3 -5 -5 -10 -3 -11 29 -7 36 -5 31 7 -6 16 -19 18 -28
4z"/>
<path d="M2910 4219 c0 -5 5 -7 10 -4 6 3 10 8 10 11 0 2 -4 4 -10 4 -5 0 -10
-5 -10 -11z"/>
<path d="M2105 4170 c-4 -6 -11 -7 -17 -4 -7 4 -8 2 -4 -5 6 -9 11 -9 22 0 14
11 18 19 10 19 -3 0 -8 -5 -11 -10z"/>
<path d="M2955 4140 c3 -5 8 -10 11 -10 2 0 4 5 4 10 0 6 -5 10 -11 10 -5 0
-7 -4 -4 -10z"/>
<path d="M3066 4042 c-3 -5 1 -9 9 -9 8 0 15 4 15 9 0 4 -4 8 -9 8 -6 0 -12
-4 -15 -8z"/>
<path d="M1879 3965 c-1 -3 -2 -8 -3 -12 -1 -5 -5 -15 -10 -23 -7 -12 -6 -13
4 -3 13 12 23 43 14 43 -2 0 -5 -2 -5 -5z"/>
<path d="M3225 3881 c-3 -6 4 -15 15 -21 13 -7 20 -7 20 0 0 5 -8 10 -17 10
-15 0 -16 2 -3 10 9 6 10 10 3 10 -6 0 -14 -4 -18 -9z"/>
<path d="M3273 3847 c3 -9 2 -19 -3 -22 -10 -6 28 -55 44 -55 5 0 17 -7 25
-14 12 -11 21 -12 31 -5 13 9 13 10 0 7 -17 -5 -60 30 -60 50 0 8 -6 12 -15 8
-8 -3 -15 -1 -15 3 0 5 4 11 9 13 5 2 2 10 -7 18 -14 13 -15 12 -9 -3z m31
-53 c3 -8 2 -12 -4 -9 -6 3 -10 10 -10 16 0 14 7 11 14 -7z"/>
<path d="M1755 3820 c-10 -11 -22 -17 -28 -13 -6 4 -7 1 -2 -6 5 -9 13 -7 31
10 13 12 24 24 24 26 0 7 -8 2 -25 -17z"/>
<path d="M3413 3719 c-2 -23 3 -25 10 -4 4 8 3 16 -1 19 -4 3 -9 -4 -9 -15z"/>
<path d="M1594 3672 c3 -6 -6 -20 -20 -31 -15 -12 -22 -21 -17 -21 5 0 20 11
32 24 17 18 19 26 10 31 -7 5 -10 4 -5 -3z"/>
<path d="M3427 3649 c7 -7 15 -10 18 -7 3 3 -2 9 -12 12 -14 6 -15 5 -6 -5z"/>
<path d="M3497 3606 c-9 -22 7 -28 29 -10 10 9 13 12 5 8 -7 -3 -17 -1 -21 6
-5 8 -9 8 -13 -4z"/>
<path d="M4550 3616 c0 -2 8 -10 18 -17 15 -13 16 -12 3 4 -13 16 -21 21 -21
13z"/>
<path d="M1530 3599 c0 -5 5 -7 10 -4 6 3 10 8 10 11 0 2 -4 4 -10 4 -5 0 -10
-5 -10 -11z"/>
<path d="M4010 3580 c0 -5 5 -10 11 -10 5 0 7 5 4 10 -3 6 -8 10 -11 10 -2 0
-4 -4 -4 -10z"/>
<path d="M4170 3580 c0 -5 5 -10 11 -10 5 0 7 5 4 10 -3 6 -8 10 -11 10 -2 0
-4 -4 -4 -10z"/>
<path d="M4330 3580 c0 -5 5 -10 11 -10 5 0 7 5 4 10 -3 6 -8 10 -11 10 -2 0
-4 -4 -4 -10z"/>
<path d="M4490 3580 c0 -5 5 -10 11 -10 5 0 7 5 4 10 -3 6 -8 10 -11 10 -2 0
-4 -4 -4 -10z"/>
<path d="M4096 3555 c-3 -8 -1 -15 4 -15 6 0 10 7 10 15 0 8 -2 15 -4 15 -2 0
-6 -7 -10 -15z"/>
<path d="M4195 3559 c-4 -6 -13 -8 -21 -5 -13 5 -30 -11 -21 -20 6 -7 57 18
57 28 0 11 -8 10 -15 -3z"/>
<path d="M4416 3555 c-3 -8 -1 -15 4 -15 6 0 10 7 10 15 0 8 -2 15 -4 15 -2 0
-6 -7 -10 -15z"/>
<path d="M4515 3559 c-4 -6 -13 -8 -21 -5 -13 5 -30 -11 -21 -20 6 -7 57 18
57 28 0 11 -8 10 -15 -3z"/>
<path d="M3585 3540 c-3 -6 1 -7 9 -4 18 7 21 14 7 14 -6 0 -13 -4 -16 -10z"/>
<path d="M3801 3524 c0 -11 3 -14 6 -6 3 7 2 16 -1 19 -3 4 -6 -2 -5 -13z"/>
<path d="M1413 3485 c0 -8 4 -12 9 -9 5 3 6 10 3 15 -9 13 -12 11 -12 -6z"/>
<path d="M3631 3487 c-8 -10 -4 -19 19 -35 33 -25 40 -27 40 -11 0 5 -5 7 -10
4 -6 -3 -13 1 -16 9 -3 9 -13 16 -21 16 -13 0 -13 3 -3 15 7 8 10 15 7 15 -2
0 -10 -6 -16 -13z"/>
<path d="M3660 3486 c0 -2 8 -10 18 -17 15 -13 16 -12 3 4 -13 16 -21 21 -21
13z"/>
<path d="M4706 3463 c-6 -14 -5 -15 5 -6 7 7 10 15 7 18 -3 3 -9 -2 -12 -12z"/>
<path d="M3708 3453 c7 -3 16 -2 19 1 4 3 -2 6 -13 5 -11 0 -14 -3 -6 -6z"/>
<path d="M4735 3449 c-4 -6 -5 -12 -2 -15 2 -3 7 2 10 11 7 17 1 20 -8 4z"/>
<path d="M1340 3446 c0 -2 8 -10 18 -17 15 -13 16 -12 3 4 -13 16 -21 21 -21
13z"/>
<path d="M1310 3379 c0 -5 5 -7 10 -4 6 3 10 8 10 11 0 2 -4 4 -10 4 -5 0 -10
-5 -10 -11z"/>
<path d="M4690 3361 c0 -6 4 -13 10 -16 6 -3 7 1 4 9 -7 18 -14 21 -14 7z"/>
<path d="M1279 3343 c-13 -16 -12 -17 4 -4 9 7 17 15 17 17 0 8 -8 3 -21 -13z"/>
<path d="M4605 3340 c-4 -6 -11 -8 -16 -5 -5 4 -9 -1 -9 -9 0 -8 -8 -20 -17
-25 -14 -8 -15 -11 -3 -11 12 0 11 -3 -3 -11 -9 -5 -23 -7 -30 -3 -6 4 -9 4
-5 -1 4 -4 3 -14 -3 -21 -6 -7 -12 -25 -13 -39 -3 -21 -1 -23 11 -13 9 7 10
13 3 18 -6 4 -5 13 5 26 13 16 14 16 9 2 -4 -11 -1 -18 6 -18 6 0 8 5 5 10 -5
9 6 14 26 12 3 -1 5 10 3 23 -1 14 2 27 7 31 5 3 9 0 9 -5 0 -20 17 -11 28 14
11 24 0 46 -13 25z m9 -15 c-4 -8 -11 -15 -16 -15 -6 0 -5 6 2 15 7 8 14 15
16 15 2 0 1 -7 -2 -15z"/>
<path d="M1196 3302 c-3 -5 1 -9 9 -9 8 0 12 4 9 9 -3 4 -7 8 -9 8 -2 0 -6 -4
-9 -8z"/>
<path d="M1195 3260 c-10 -11 -22 -17 -28 -13 -6 4 -7 1 -2 -6 5 -9 13 -7 31
10 13 12 24 24 24 26 0 7 -8 2 -25 -17z"/>
<path d="M4364 3102 c0 -9 -3 -17 -9 -17 -17 -1 -36 -16 -30 -25 3 -4 -2 -13
-10 -20 -15 -12 -10 -40 7 -40 7 0 6 5 -1 13 -13 17 -5 28 16 20 10 -4 14 0
11 13 -2 15 3 19 22 17 14 -1 19 1 13 3 -7 3 -13 10 -13 15 0 6 5 7 10 4 6 -3
10 -1 10 5 0 6 5 8 10 5 6 -3 10 -1 10 4 0 6 -3 11 -7 12 -5 0 -15 2 -24 4
-10 2 -16 -3 -15 -13z"/>
<path d="M4295 2981 c-3 -5 -2 -12 3 -15 5 -3 9 1 9 9 0 17 -3 19 -12 6z"/>
<path d="M846 2918 c3 -5 10 -6 15 -3 13 9 11 12 -6 12 -8 0 -12 -4 -9 -9z"/>
<path d="M4293 2845 c0 -8 4 -12 9 -9 5 3 6 10 3 15 -9 13 -12 11 -12 -6z"/>
<path d="M766 2838 c3 -5 10 -6 15 -3 13 9 11 12 -6 12 -8 0 -12 -4 -9 -9z"/>
<path d="M633 2705 c0 -8 4 -12 9 -9 5 3 6 10 3 15 -9 13 -12 11 -12 -6z"/>
<path d="M4535 2550 c3 -5 8 -10 11 -10 2 0 4 5 4 10 0 6 -5 10 -11 10 -5 0
-7 -4 -4 -10z"/>
<path d="M4593 2463 c4 -3 2 -12 -4 -20 -9 -9 -8 -13 0 -13 6 0 11 5 11 11 0
5 4 7 10 4 6 -3 7 1 4 9 -3 9 -11 16 -17 16 -6 0 -7 -3 -4 -7z"/>
<path d="M556 2273 c-6 -14 -5 -15 5 -6 7 7 10 15 7 18 -3 3 -9 -2 -12 -12z"/>
<path d="M595 2250 c3 -5 8 -10 11 -10 2 0 4 5 4 10 0 6 -5 10 -11 10 -5 0 -7
-4 -4 -10z"/>
<path d="M624 2229 c-5 -8 -3 -9 6 -4 7 4 16 2 22 -6 8 -12 9 -12 6 0 -6 20
-24 25 -34 10z"/>
<path d="M667 2209 c-4 -16 -3 -18 9 -8 7 6 11 15 8 20 -8 13 -11 11 -17 -12z"/>
<path d="M647 2179 c7 -7 15 -10 18 -7 3 3 -2 9 -12 12 -14 6 -15 5 -6 -5z"/>
<path d="M755 2090 c3 -5 8 -10 11 -10 2 0 4 5 4 10 0 6 -5 10 -11 10 -5 0 -7
-4 -4 -10z"/>
<path d="M797 2079 c-9 -6 -17 -15 -17 -22 0 -8 3 -7 9 2 8 12 12 12 26 -2 11
-11 12 -17 4 -17 -7 0 -10 -3 -6 -6 3 -3 11 -3 17 1 8 5 7 11 -2 22 -7 9 -11
18 -10 20 8 10 -4 11 -21 2z"/>
<path d="M857 2014 c7 -3 9 -12 6 -20 -3 -7 -10 -11 -16 -7 -6 4 -7 1 -2 -7 6
-10 11 -9 21 5 14 19 10 35 -9 34 -9 0 -9 -2 0 -5z"/>
<path d="M946 1917 c3 -10 9 -15 12 -12 3 3 0 11 -7 18 -10 9 -11 8 -5 -6z"/>
<path d="M946 1882 c-3 -5 1 -9 9 -9 8 0 12 4 9 9 -3 4 -7 8 -9 8 -2 0 -6 -4
-9 -8z"/>
<path d="M1020 1640 c-11 -7 -11 -10 -2 -10 7 0 11 -4 8 -8 -3 -5 1 -9 9 -9 8
0 15 4 15 9 0 4 -5 8 -11 8 -5 0 -7 5 -4 10 8 12 4 12 -15 0z"/>
<path d="M1003 1522 c-8 -5 -3 -11 13 -19 13 -6 22 -7 19 -3 -3 5 1 10 7 13 7
2 9 8 5 13 -4 5 -12 2 -16 -5 -6 -8 -10 -9 -12 -2 -2 5 -9 7 -16 3z"/>
<path d="M1016 1474 c19 -15 18 -15 -3 -9 -12 3 -25 1 -29 -6 -4 -7 -3 -9 4
-6 14 9 43 -3 36 -14 -3 -5 2 -9 10 -9 9 0 16 5 16 10 0 6 -5 10 -12 10 -6 0
-8 3 -5 7 8 8 -12 33 -26 33 -6 0 -2 -7 9 -16z"/>
<path d="M966 1378 c3 -5 10 -6 15 -3 13 9 11 12 -6 12 -8 0 -12 -4 -9 -9z"/>
<path d="M1513 1269 c-2 -23 3 -25 10 -4 4 8 3 16 -1 19 -4 3 -9 -4 -9 -15z"/>
<path d="M1590 1256 c0 -2 8 -10 18 -17 15 -13 16 -12 3 4 -13 16 -21 21 -21
13z"/>
<path d="M1633 1231 c1 -15 4 -17 14 -9 17 13 17 -4 1 -22 -11 -12 -10 -12 3
-2 9 6 18 10 20 7 3 -2 5 5 6 16 1 11 -2 17 -7 14 -5 -3 -11 -1 -15 5 -10 17
-24 11 -22 -9z"/>
<path d="M1475 1210 c-4 -6 -11 -7 -17 -4 -7 4 -8 2 -4 -5 6 -9 11 -9 22 0 14
11 18 19 10 19 -3 0 -8 -5 -11 -10z"/>
<path d="M1003 1202 c-8 -5 -3 -11 13 -19 13 -6 22 -7 19 -3 -3 5 1 10 7 13 7
2 9 8 5 13 -4 5 -12 2 -16 -5 -6 -8 -10 -9 -12 -2 -2 5 -9 7 -16 3z"/>
<path d="M3390 1179 c0 -5 5 -7 10 -4 6 3 10 8 10 11 0 2 -4 4 -10 4 -5 0 -10
-5 -10 -11z"/>
<path d="M1681 1164 c0 -11 3 -14 6 -6 3 7 2 16 -1 19 -3 4 -6 -2 -5 -13z"/>
<path d="M3323 1158 c-18 -22 -21 -58 -3 -58 4 0 7 8 6 18 0 9 4 16 9 15 6 -1
12 9 13 23 2 30 1 30 -25 2z m17 -2 c0 -2 -8 -10 -17 -17 -16 -13 -17 -12 -4
4 13 16 21 21 21 13z"/>
<path d="M995 1160 c-3 -5 -2 -10 4 -10 5 0 13 5 16 10 3 6 2 10 -4 10 -5 0
-13 -4 -16 -10z"/>
<path d="M1003 1114 c9 -11 14 -24 10 -29 -5 -4 2 -2 15 4 12 7 20 16 17 22
-4 5 -11 7 -16 3 -5 -3 -18 0 -27 7 -15 12 -15 12 1 -7z"/>
<path d="M1300 1086 c0 -2 8 -10 18 -17 15 -13 16 -12 3 4 -13 16 -21 21 -21
13z"/>
<path d="M1793 1071 c1 -15 4 -17 14 -9 7 5 10 14 7 19 -10 16 -23 9 -21 -10z"/>
<path d="M3242 1038 c-7 -7 -12 -17 -12 -22 0 -6 5 -3 11 7 6 9 15 14 21 11 7
-4 8 -2 4 4 -9 15 -9 15 -24 0z"/>
<path d="M1130 957 c0 -5 -6 -7 -13 -4 -7 3 -26 -1 -42 -9 -24 -11 -25 -13 -5
-7 33 8 80 8 105 -1 15 -6 15 -4 -3 6 -12 8 -20 16 -17 19 3 3 -2 6 -10 6 -8
0 -15 -5 -15 -10z"/>
<path d="M1956 925 c4 -8 11 -15 17 -15 6 0 3 -6 -8 -13 -14 -11 -15 -16 -5
-22 8 -5 11 -4 7 2 -4 6 0 14 9 17 12 4 15 2 10 -9 -5 -13 -2 -14 16 -4 22 12
22 12 2 20 -12 4 -24 14 -27 23 -4 9 -11 16 -16 16 -6 0 -8 -7 -5 -15z"/>
<path d="M1093 915 c0 -8 4 -12 9 -9 4 3 8 9 8 15 0 5 -4 9 -8 9 -5 0 -9 -7
-9 -15z"/>
<path d="M1135 920 c3 -5 8 -10 11 -10 2 0 4 5 4 10 0 6 -5 10 -11 10 -5 0 -7
-4 -4 -10z"/>
<path d="M3070 839 c0 -5 5 -7 10 -4 6 3 10 8 10 11 0 2 -4 4 -10 4 -5 0 -10
-5 -10 -11z"/>
<path d="M2995 800 c3 -5 8 -10 11 -10 2 0 4 5 4 10 0 6 -5 10 -11 10 -5 0 -7
-4 -4 -10z"/>
<path d="M3026 798 c3 -5 10 -6 15 -3 13 9 11 12 -6 12 -8 0 -12 -4 -9 -9z"/>
<path d="M2122 767 c-8 -10 -6 -16 9 -25 11 -7 17 -18 13 -24 -5 -7 -3 -8 5
-4 9 6 9 12 -2 24 -8 10 -12 23 -10 30 6 16 -2 15 -15 -1z"/>
<path d="M2116 727 c3 -10 9 -15 12 -12 3 3 0 11 -7 18 -10 9 -11 8 -5 -6z"/>
<path d="M2940 726 c0 -2 8 -10 18 -17 15 -13 16 -12 3 4 -13 16 -21 21 -21
13z"/>
<path d="M2906 678 c3 -5 10 -6 15 -3 13 9 11 12 -6 12 -8 0 -12 -4 -9 -9z"/>
<path d="M2253 575 c0 -8 4 -12 9 -9 5 3 6 10 3 15 -9 13 -12 11 -12 -6z"/>
<path d="M2326 502 c-3 -5 1 -9 9 -9 8 0 12 4 9 9 -3 4 -7 8 -9 8 -2 0 -6 -4
-9 -8z"/>
<path d="M2595 400 c3 -5 8 -10 11 -10 2 0 4 5 4 10 0 6 -5 10 -11 10 -5 0 -7
-4 -4 -10z"/>
</g>
</svg>
